<svg xmlns="http://www.w3.org/2000/svg" viewBox="0 0 500 500"><g id="freepik--background-simple--inject-137"><path d="M401.63,123.44l-2-3.28c-16.78-27.65-47.12-44.32-79.11-42.3a84.36,84.36,0,0,0-12.24,1.68c-29.09,6.23-54.39,28.22-64.88,56.39-6.17,16.56-7.89,35.63-19.6,48.78-15.24,17.12-41.1,17.65-63.85,16.94s-48.62-.1-63.78,17.08c-9.5,10.76-12.52,26.06-11.75,40.47,2,38.15,28.61,72.26,62.42,89.22s73.61,18.47,110.61,11C309.29,349,358.58,320.29,388.21,276S425.34,171.27,401.63,123.44Z" style="fill:#f5f5f5"></path></g><g id="freepik--Floor--inject-137"><path d="M479.17,470.27c0,.15-102.61.26-229.16.26s-229.18-.11-229.18-.26S123.42,470,250,470,479.17,470.13,479.17,470.27Z" style="fill:#263238"></path></g><g id="freepik--Bars--inject-137"><rect x="250.68" y="274.66" width="61.43" height="195.61" style="fill:#FF725E"></rect><g style="opacity:0.30000000000000004"><rect x="293.06" y="274.66" width="19.04" height="195.61"></rect></g><path d="M293.06,470.27c-.14,0-.26-43.29-.26-96.69s.12-96.71.26-96.71.27,43.29.27,96.71S293.21,470.27,293.06,470.27Z" style="fill:#263238"></path><rect x="160.84" y="180.26" width="61.43" height="290.22" style="fill:#FF725E"></rect><g style="opacity:0.30000000000000004"><rect x="203.23" y="180.26" width="19.04" height="290.22"></rect></g><path d="M203.23,470.48c-.15,0-.26-64.24-.26-143.47s.11-143.48.26-143.48.26,64.23.26,143.48S203.37,470.48,203.23,470.48Z" style="fill:#263238"></path><rect x="349.66" y="387.85" width="61.43" height="82.39" style="fill:#FF725E"></rect><g style="opacity:0.30000000000000004"><rect x="392.05" y="387.85" width="19.04" height="82.39"></rect></g><path d="M392.05,470.24c-.15,0-.26-18.24-.26-40.73s.11-40.73.26-40.73.26,18.24.26,40.73S392.19,470.24,392.05,470.24Z" style="fill:#263238"></path><rect x="64.2" y="95.75" width="61.43" height="374.29" style="fill:#FF725E"></rect><g style="opacity:0.30000000000000004"><rect x="106.59" y="95.75" width="19.04" height="374.29"></rect></g><path d="M106.59,471.56c-.14,0-.26-83.19-.26-185.78s.12-185.81.26-185.81.26,83.18.26,185.81S106.74,471.56,106.59,471.56Z" style="fill:#263238"></path></g><g id="freepik--Sheets--inject-137"><path d="M148.81,407.58c12.54-12.93,26.6-20,44.55-21.56-4.24-6.6-11.78-19.47-16-26.08-22.56.12-40.09,12.84-51.94,31.8C133.75,397.75,140.47,401.58,148.81,407.58Z" style="fill:#e0e0e0"></path><path d="M148.81,407.58a1.86,1.86,0,0,1-.41-.25l-1.23-.83-4.67-3.13c-4.06-2.72-10.11-6.38-17.23-11.44l-.17-.13.11-.18a94.56,94.56,0,0,1,7.28-10,71.1,71.1,0,0,1,10.14-9.77A58.48,58.48,0,0,1,156,364a54.87,54.87,0,0,1,16-4,22.28,22.28,0,0,1,2.7-.19l2.67-.11h.17l.1.15c5.83,9.23,11,18.21,16,26.1l.25.4-.47,0a70.25,70.25,0,0,0-19.88,4.54,65.24,65.24,0,0,0-14,7.63,83.12,83.12,0,0,0-8,6.57c-.87.81-1.54,1.45-2,1.91l-.51.48-.17.14a1.05,1.05,0,0,1,.16-.19l.5-.52c.44-.45,1.05-1.12,1.91-1.95a77.09,77.09,0,0,1,8-6.72,64.13,64.13,0,0,1,14-7.79,70,70,0,0,1,20-4.67l-.21.44c-5.05-7.89-10.21-16.86-16-26.07l.27.15-2.65.1a24,24,0,0,0-2.67.2,54.42,54.42,0,0,0-15.84,4,58.33,58.33,0,0,0-13.2,7.75,71.22,71.22,0,0,0-10.1,9.66,94.15,94.15,0,0,0-7.28,9.93l-.06-.31c7.06,5.1,13.07,8.82,17.09,11.6,2,1.38,3.56,2.48,4.61,3.24l1.15.87C148.67,407.46,148.8,407.57,148.81,407.58Z" style="fill:#263238"></path><path d="M135.77,386.84c.11-.14,3.75,2.46,8.14,5.8s7.86,6.16,7.75,6.3-3.75-2.46-8.13-5.8S135.67,387,135.77,386.84Z" style="fill:#263238"></path><path d="M140.39,381c.12-.13,3.52,2.78,7.59,6.5s7.28,6.83,7.17,7-3.52-2.78-7.59-6.5S140.27,381.12,140.39,381Z" style="fill:#263238"></path><path d="M147.28,375.51a14.4,14.4,0,0,1,2,2.06c1.21,1.32,2.89,3.12,4.78,5.09s3.56,3.8,4.7,5.19a12.07,12.07,0,0,1,1.72,2.35,14.29,14.29,0,0,1-2.05-2.05l-4.83-5c-1.89-2-3.53-3.84-4.66-5.24A12.4,12.4,0,0,1,147.28,375.51Z" style="fill:#263238"></path><path d="M166.36,388.08a11.23,11.23,0,0,1-2-2.1c-1.14-1.38-2.63-3.35-4.15-5.62s-2.78-4.38-3.67-5.91a13.57,13.57,0,0,1-1.35-2.56c.17-.11,2.56,3.6,5.55,8.12,1.5,2.26,2.92,4.26,4,5.69A16.79,16.79,0,0,1,166.36,388.08Z" style="fill:#263238"></path><path d="M171.78,385.81a9.93,9.93,0,0,1-1.64-2.09c-.93-1.34-2.15-3.25-3.37-5.43s-2.22-4.22-2.88-5.72a10.6,10.6,0,0,1-.92-2.49c.17-.08,1.91,3.57,4.35,7.9S171.93,385.71,171.78,385.81Z" style="fill:#263238"></path><path d="M179,383.46a10.33,10.33,0,0,1-1.68-2.13c-1-1.36-2.24-3.28-3.56-5.46s-2.46-4.19-3.23-5.67a11.49,11.49,0,0,1-1.12-2.46A11.55,11.55,0,0,1,171,370l3.37,5.56,3.4,5.55A12.84,12.84,0,0,1,179,383.46Z" style="fill:#263238"></path><path d="M204.23,239.05c-10.66,14.82-23.7,24-41.45,28.22,5.23,6,14.68,17.77,19.91,23.76,22.59-3.46,38.27-18.81,47.34-39.57C220.78,246.68,213.48,243.84,204.23,239.05Z" style="fill:#ebebeb"></path><path d="M204.23,239.05a3.93,3.93,0,0,1,.45.2l1.35.65,5.15,2.45c4.46,2.11,11.07,4.89,18.95,8.91l.2.1-.09.2a95.05,95.05,0,0,1-5.81,11.13,71.45,71.45,0,0,1-8.71,11.3,59.32,59.32,0,0,1-12.18,9.85,56.28,56.28,0,0,1-15.46,6.41c-.88.25-1.78.43-2.67.59l-2.67.5-.17,0-.11-.14c-7.22-8.38-13.71-16.62-19.9-23.78l-.3-.36.45-.11a71.25,71.25,0,0,0,19.25-7.5,65.24,65.24,0,0,0,12.87-9.72A85,85,0,0,0,201.9,242l1.73-2.22.45-.55.15-.18a1.61,1.61,0,0,1-.14.22l-.42.6c-.37.51-.89,1.28-1.63,2.24a77,77,0,0,1-7,7.9,64.59,64.59,0,0,1-12.87,9.89,71.06,71.06,0,0,1-19.36,7.65l.15-.47c6.23,7.16,12.73,15.39,19.94,23.75l-.29-.11,2.64-.5a24.08,24.08,0,0,0,2.65-.58,55.47,55.47,0,0,0,15.29-6.33,58.63,58.63,0,0,0,12.07-9.72A71.73,71.73,0,0,0,224,262.41a96,96,0,0,0,5.83-11l.11.3c-7.84-4.06-14.41-6.9-18.85-9.09-2.23-1.08-3.94-2-5.1-2.56l-1.29-.7A3.5,3.5,0,0,1,204.23,239.05Z" style="fill:#263238"></path><path d="M220.37,257.91c-.09.15-4.12-1.91-9-4.61s-8.8-5-8.71-5.16,4.12,1.91,9,4.61S220.45,257.76,220.37,257.91Z" style="fill:#263238"></path><path d="M216.61,264.46c-.1.14-3.94-2.27-8.57-5.39s-8.31-5.77-8.22-5.91,3.93,2.27,8.57,5.39S216.7,264.32,216.61,264.46Z" style="fill:#263238"></path><path d="M210.51,271a16.54,16.54,0,0,1-2.34-1.78c-1.41-1.14-3.37-2.69-5.55-4.39s-4.13-3.28-5.48-4.5a12.56,12.56,0,0,1-2.07-2.1,16.23,16.23,0,0,1,2.36,1.76l5.58,4.35c2.19,1.7,4.11,3.32,5.45,4.55A12.06,12.06,0,0,1,210.51,271Z" style="fill:#263238"></path><path d="M189.53,261.2a12.51,12.51,0,0,1,2.3,1.82c1.34,1.21,3.13,3,5,5s3.44,4,4.56,5.39a13.3,13.3,0,0,1,1.73,2.36c-.15.13-3.1-3.23-6.76-7.33-1.84-2-3.56-3.82-4.82-5.11A15.81,15.81,0,0,1,189.53,261.2Z" style="fill:#263238"></path><path d="M184.43,264.28a10.76,10.76,0,0,1,1.95,1.85c1.14,1.21,2.64,2.95,4.19,4.95s2.84,3.9,3.73,5.31a10.62,10.62,0,0,1,1.29,2.35c-.15.1-2.44-3.29-5.52-7.27S184.3,264.41,184.43,264.28Z" style="fill:#263238"></path><path d="M177.51,267.72a11,11,0,0,1,2,1.88c1.16,1.22,2.72,3,4.37,4.95s3.08,3.83,4.08,5.2a11.52,11.52,0,0,1,1.49,2.3,12.52,12.52,0,0,1-1.84-2c-1.24-1.48-2.65-3.19-4.21-5.07l-4.23-5.06A12.94,12.94,0,0,1,177.51,267.72Z" style="fill:#263238"></path></g></svg>