<svg width="130" height="130" viewBox="0 0 130 130" fill="none" xmlns="http://www.w3.org/2000/svg">
<mask id="mask0_19_64" style="mask-type:alpha" maskUnits="userSpaceOnUse" x="0" y="0" width="130" height="130">
<rect width="130" height="130" rx="65" fill="#D9D9D9"/>
</mask>
<g mask="url(#mask0_19_64)">
<path d="M114.582 53.6557C118.992 48.9207 121.927 37.1557 118.992 32.7557C116.057 28.3557 100.217 34.5507 94.4918 40.5957C88.7668 46.6407 86.4918 50.3907 86.4918 50.3907C80.0368 49.4457 68.6018 49.6157 64.7718 49.7007C60.9018 49.6157 49.3568 49.4457 42.9018 50.3907C42.9018 50.3907 40.6168 46.6357 34.9018 40.5957C29.1868 34.5557 13.3518 28.3507 10.4018 32.7557C7.45178 37.1607 10.4018 48.9207 14.8118 53.6557C19.2218 58.3907 27.8718 68.8357 29.0118 69.9807C30.1518 71.1257 28.1968 84.5107 28.5118 101.481C28.8268 118.451 29.1668 132.481 31.2868 140.336C33.4068 148.191 37.0018 158.456 37.0018 161.396C36.9788 164.399 36.1332 167.339 34.5568 169.896C32.9218 172.671 29.1668 173.816 28.6768 177.081C28.1868 180.346 29.6768 182.141 34.0668 183.281C38.4568 184.421 40.5968 184.426 43.6968 182.466C46.7968 180.506 49.0868 177.081 49.0868 177.081L65.7368 177.406L82.3918 177.081C82.3918 177.081 84.6768 180.506 87.7768 182.466C90.8768 184.426 93.0018 184.426 97.4118 183.281C101.822 182.136 103.287 180.346 102.797 177.081C102.307 173.816 98.5518 172.671 96.9218 169.896C95.3417 167.34 94.4942 164.4 94.4718 161.396C94.4718 158.456 98.0618 148.171 100.187 140.336C102.312 132.501 100.512 118.461 100.837 101.481C101.162 84.5007 99.2068 71.1107 100.337 69.9807C101.467 68.8507 110.172 58.3907 114.582 53.6557Z" fill="#FF725E"/>
<path d="M38.7718 184.306C37.1655 184.244 35.5732 183.982 34.0318 183.526C29.5568 182.366 27.9418 180.486 28.4618 177.026C28.7618 175.026 30.2568 173.766 31.6968 172.556C32.7385 171.78 33.6413 170.833 34.3668 169.756C35.9207 167.24 36.756 164.347 36.7818 161.391C36.7818 159.511 35.2418 154.426 33.6118 149.046C32.7318 146.136 31.8168 143.121 31.0768 140.396C28.8868 132.306 28.5768 117.331 28.2918 101.481C28.1268 92.8957 28.5468 85.2157 28.8518 79.6057C29.1268 74.6057 29.3518 70.6307 28.8518 70.1407C28.3518 69.6507 26.7068 67.7057 24.5818 65.2107C21.4968 61.5907 17.2718 56.6357 14.6418 53.8107C10.2718 49.1157 7.18678 37.1407 10.2068 32.6057C10.8118 31.7007 11.9218 31.1707 13.5018 31.0357C19.2268 30.5357 30.3218 35.3657 35.0868 40.4057C40.1468 45.7557 42.5568 49.3657 43.0318 50.1057C49.5968 49.1757 61.3218 49.3607 64.7818 49.4357C68.1968 49.3607 79.7818 49.1757 86.3718 50.1057C86.8718 49.3657 89.2568 45.7557 94.3118 40.4057C99.0818 35.3657 110.177 30.5457 115.897 31.0357C117.482 31.1707 118.592 31.7007 119.192 32.6057C122.217 37.1407 119.132 49.1057 114.762 53.8107C112.127 56.6357 107.907 61.5907 104.822 65.2057C102.697 67.7057 101.017 69.6757 100.552 70.1407C100.087 70.6057 100.277 74.5907 100.552 79.6057C100.857 85.2157 101.277 92.8957 101.112 101.481C100.992 107.776 101.167 113.741 101.317 118.981C101.587 128.161 101.817 135.416 100.452 140.376C99.7118 143.101 98.8018 146.116 97.9168 149.031C96.2868 154.411 94.7468 159.491 94.7468 161.371C94.7726 164.327 95.6078 167.22 97.1618 169.736C97.8873 170.813 98.79 171.76 99.8318 172.536C101.277 173.746 102.767 174.996 103.072 177.006C103.572 180.451 101.972 182.331 97.4968 183.506C93.2518 184.606 90.9518 184.731 87.6668 182.656C84.8368 180.871 82.7168 177.936 82.2818 177.311L65.7818 177.636L49.2568 177.311C48.8218 177.936 46.7018 180.871 43.8718 182.656C42.3775 183.708 40.5994 184.284 38.7718 184.306ZM14.3318 31.5207C14.0568 31.5207 13.8018 31.5207 13.5518 31.5507C12.1268 31.6707 11.1468 32.1257 10.6318 32.8957C7.71178 37.2757 10.7518 48.8957 15.0118 53.4857C17.6518 56.3057 21.8868 61.3057 24.9668 64.9007C27.0818 67.4007 28.7568 69.3507 29.2118 69.8057C29.8268 70.4207 29.7118 73.2707 29.3518 79.6457C29.0468 85.2507 28.6268 92.9207 28.7918 101.486C29.0968 117.306 29.3868 132.251 31.5618 140.281C32.2968 143.001 33.2068 146.006 34.0918 148.916C35.7318 154.336 37.2818 159.451 37.2818 161.416C37.2518 164.462 36.3871 167.442 34.7818 170.031C34.0299 171.16 33.0896 172.151 32.0018 172.961C30.5618 174.166 29.2068 175.301 28.9368 177.126C28.4368 180.296 29.9368 181.956 34.1368 183.051C38.3368 184.146 40.4968 184.211 43.5718 182.266C46.6468 180.321 48.8868 176.976 48.8868 176.941C48.9124 176.908 48.9449 176.881 48.9821 176.862C49.0192 176.843 49.0601 176.832 49.1018 176.831L65.7518 177.156L82.3968 176.831C82.4379 176.831 82.4783 176.842 82.5148 176.861C82.5512 176.88 82.5827 176.907 82.6068 176.941C82.6318 176.976 84.9018 180.346 87.9218 182.256C90.9418 184.166 93.0718 184.151 97.3568 183.041C101.642 181.931 103.037 180.286 102.562 177.116C102.287 175.291 100.932 174.156 99.4968 172.951C98.4087 172.139 97.4668 171.149 96.7118 170.021C95.1065 167.432 94.2418 164.452 94.2118 161.406C94.2118 159.451 95.7618 154.336 97.4018 148.906C98.2868 145.996 99.1968 142.986 99.9318 140.266C101.257 135.376 101.047 128.156 100.782 119.016C100.632 113.751 100.457 107.781 100.577 101.471C100.742 92.9057 100.322 85.2357 100.017 79.6307C99.6718 73.2507 99.5418 70.4057 100.162 69.7907C100.612 69.3357 102.287 67.3707 104.407 64.8857C107.492 61.2607 111.722 56.3007 114.357 53.4707C118.622 48.8907 121.662 37.2607 118.742 32.8807C118.242 32.1107 117.242 31.6557 115.822 31.5357C110.322 31.0657 99.2418 35.8907 94.6418 40.7507C89.0168 46.6957 86.6968 50.4657 86.6768 50.5057C86.6509 50.5472 86.6135 50.5803 86.569 50.6007C86.5246 50.6212 86.4751 50.6281 86.4268 50.6207C79.9268 49.6757 68.1868 49.8557 64.7468 49.9357C61.2468 49.8557 49.4018 49.6757 42.9068 50.6207C42.8584 50.6281 42.809 50.6212 42.7645 50.6007C42.7201 50.5803 42.6826 50.5472 42.6568 50.5057C42.6568 50.4657 40.3168 46.6957 34.6918 40.7507C30.3418 36.1257 20.0368 31.5207 14.3318 31.5207Z" fill="#263238"/>
<path d="M84.1468 135.196C77.4318 136.791 77.7968 134.906 77.2518 127.521C76.7068 120.136 84.3318 116.521 90.3218 113.021C96.3118 109.521 100.322 99.2607 98.8568 97.5207C97.3918 95.7807 83.2418 96.9407 82.1518 94.3357C81.0618 91.7307 80.6218 83.5357 80.6218 83.5357L65.2668 79.2007L49.2668 83.5357C49.2668 83.5357 49.4618 91.7257 48.3718 94.3357C47.2818 96.9457 33.1218 95.7807 31.6718 97.5207C30.2218 99.2607 34.2118 109.521 40.2018 113.021C46.1918 116.521 53.8218 120.116 53.2768 127.521C52.7318 134.926 53.1018 136.806 46.3868 135.196C39.6718 133.586 34.2218 129.981 34.2218 135.486C34.2218 140.991 35.4918 148.666 39.4868 151.416C43.4818 154.166 46.9318 152.721 49.1068 157.786C51.2818 162.851 51.0118 171.841 48.5168 176.286C48.4126 176.476 48.3352 176.679 48.2868 176.891C48.5668 176.516 48.7218 176.286 48.7218 176.286L65.3718 176.611L82.0168 176.286C79.5168 171.836 79.2468 162.851 81.4268 157.786C83.6068 152.721 87.0518 154.166 91.0468 151.416C95.0418 148.666 96.3118 140.991 96.3118 135.486C96.3118 129.981 90.8868 133.601 84.1468 135.196Z" fill="white"/>
<path opacity="0.33" d="M88.2718 50.7707C88.2718 50.7707 89.8218 56.3157 92.1518 60.1957C94.4818 64.0757 96.6968 67.0707 100.152 65.7407C103.607 64.4107 114.237 52.9907 116.232 47.8907C118.227 42.7907 119.447 34.8057 116.562 32.8107C113.677 30.8157 96.9168 35.3607 88.2718 50.7707Z" fill="black"/>
<path opacity="0.33" d="M40.7968 50.7707C40.7968 50.7707 39.2418 56.3157 36.9168 60.1957C34.5918 64.0757 32.3668 67.0707 28.9168 65.7407C25.4668 64.4107 14.8368 52.9907 12.8418 47.8907C10.8468 42.7907 9.64178 34.8057 12.5218 32.8057C15.4018 30.8057 32.1468 35.3607 40.7968 50.7707Z" fill="black"/>
<path d="M61.0318 85.0007H69.9818V96.8057C69.9818 97.3363 69.8773 97.8616 69.6743 98.3518C69.4712 98.8419 69.1736 99.2873 68.7985 99.6624C68.4233 100.038 67.978 100.335 67.4878 100.538C66.9977 100.741 66.4723 100.846 65.9418 100.846H65.0718C64.0003 100.846 62.9727 100.42 62.2151 99.6624C61.4574 98.9048 61.0318 97.8772 61.0318 96.8057V85.0007Z" fill="#FF725E"/>
<path d="M65.9418 101.086H65.0718C63.9344 101.084 62.844 100.632 62.0398 99.8278C61.2355 99.0235 60.7831 97.9331 60.7818 96.7957V85.0007C60.7818 84.9344 60.8081 84.8708 60.855 84.8239C60.9019 84.7771 60.9655 84.7507 61.0318 84.7507H69.9818C70.0481 84.7507 70.1117 84.7771 70.1586 84.8239C70.2054 84.8708 70.2318 84.9344 70.2318 85.0007V96.8057C70.2278 97.9414 69.7742 99.0292 68.9703 99.8313C68.1663 100.633 67.0774 101.084 65.9418 101.086ZM61.2818 85.2507V96.8057C61.2831 97.8105 61.6828 98.7737 62.3933 99.4842C63.1038 100.195 64.067 100.594 65.0718 100.596H65.9418C66.9465 100.594 67.9098 100.195 68.6203 99.4842C69.3307 98.7737 69.7305 97.8105 69.7318 96.8057V85.2507H61.2818Z" fill="#263238"/>
<path d="M65.3418 94.7707C65.2759 94.7694 65.213 94.7427 65.1664 94.6961C65.1198 94.6495 65.0931 94.5866 65.0918 94.5207V87.4507C65.0918 87.3844 65.1181 87.3208 65.165 87.2739C65.2119 87.2271 65.2755 87.2007 65.3418 87.2007C65.4081 87.2007 65.4717 87.2271 65.5186 87.2739C65.5654 87.3208 65.5918 87.3844 65.5918 87.4507V94.5207C65.5918 94.587 65.5654 94.6506 65.5186 94.6975C65.4717 94.7444 65.4081 94.7707 65.3418 94.7707Z" fill="#263238"/>
<path d="M69.5868 71.9407C68.2818 68.5107 70.0868 62.1457 69.0868 59.0407C68.0868 55.9357 66.1468 56.5907 66.1468 56.5907L65.3318 56.7557L64.5168 56.5907C64.5168 56.5907 62.5568 55.9407 61.5768 59.0407C60.5968 62.1407 62.3918 68.5107 61.0768 71.9407C59.7618 75.3707 49.6518 81.4107 49.6518 84.3457C49.6518 87.2807 55.0368 91.8457 57.3218 92.8457C59.6068 93.8457 65.3218 87.4607 65.3218 87.4607C65.3218 87.4607 71.0368 93.8257 73.3218 92.8457C75.6068 91.8657 80.9968 87.2957 80.9968 84.3457C80.9968 81.3957 70.8868 75.3657 69.5868 71.9407Z" fill="white"/>
<path d="M72.8118 93.1857C70.4268 93.1857 66.3668 88.9357 65.3418 87.8207C64.2218 89.0457 59.4618 94.0107 57.2468 93.0657C54.9118 92.0657 49.4218 87.4457 49.4218 84.3457C49.4218 82.6757 52.2368 80.2707 55.2168 77.7207C57.7168 75.6007 60.2718 73.4007 60.8668 71.8507C61.5418 70.0757 61.3668 67.4557 61.1818 64.9257C61.0268 62.6307 60.8768 60.4657 61.3518 58.9657C61.7368 57.7407 62.3218 56.9207 63.0868 56.5307C63.5472 56.2865 64.0825 56.2241 64.5868 56.3557L65.3218 56.5007L66.0918 56.3457C66.5974 56.2196 67.1319 56.2855 67.5918 56.5307C68.3568 56.9207 68.9418 57.7407 69.3318 58.9657C69.8018 60.4657 69.6568 62.6307 69.4968 64.9257C69.3218 67.4557 69.1418 70.0757 69.8168 71.8507C70.4068 73.4007 72.9768 75.6007 75.4618 77.7207C78.4618 80.2707 81.2618 82.6757 81.2618 84.3457C81.2618 87.4457 75.7618 92.0657 73.4368 93.0657C73.2391 93.1488 73.0262 93.1897 72.8118 93.1857ZM64.0818 56.8057C63.8114 56.8066 63.5454 56.8736 63.3068 57.0007C62.6668 57.3307 62.1718 58.0507 61.8068 59.1357C61.3618 60.5457 61.5068 62.6657 61.6618 64.9107C61.8418 67.4957 62.0268 70.1707 61.3118 72.0507C60.6768 73.7207 58.1718 75.8607 55.5218 78.1207C52.7568 80.4857 49.9018 82.9257 49.9018 84.3657C49.9018 87.2257 55.2418 91.6907 57.4018 92.6257C59.1418 93.3707 63.5618 89.0357 65.1168 87.3007C65.1406 87.2756 65.1693 87.2556 65.2011 87.2419C65.2329 87.2283 65.2672 87.2212 65.3018 87.2212C65.3364 87.2212 65.3707 87.2283 65.4025 87.2419C65.4343 87.2556 65.463 87.2756 65.4868 87.3007C67.0468 89.0357 71.4868 93.3807 73.2018 92.6257C75.3868 91.6907 80.7018 87.2257 80.7018 84.3657C80.7018 82.9257 77.8418 80.4857 75.0768 78.1207C72.4268 75.8607 69.9268 73.7207 69.2868 72.0507C68.5768 70.1707 68.7568 67.4957 68.9368 64.9107C69.0918 62.6657 69.2368 60.5457 68.7968 59.1357C68.4468 58.0407 67.9468 57.3207 67.2968 56.9957C66.9487 56.8109 66.5452 56.7594 66.1618 56.8507L65.3168 57.0207C65.2836 57.0257 65.2499 57.0257 65.2168 57.0207L64.4018 56.8557C64.2971 56.828 64.1899 56.8113 64.0818 56.8057Z" fill="#263238"/>
<path d="M71.5468 80.4307C69.9526 78.829 67.8056 77.8986 65.5468 77.8307C61.4618 77.7657 58.3218 79.4507 58.6468 80.9207C58.9718 82.3907 63.2218 85.4907 64.8518 85.9807C66.4818 86.4707 71.2218 82.7157 71.5468 80.4307Z" fill="#263238"/>
<path d="M73.4768 71.8757C74.4598 71.8757 75.2568 70.7475 75.2568 69.3557C75.2568 67.964 74.4598 66.8357 73.4768 66.8357C72.4937 66.8357 71.6968 67.964 71.6968 69.3557C71.6968 70.7475 72.4937 71.8757 73.4768 71.8757Z" fill="#263238"/>
<path d="M73.8418 68.8357C74.0986 68.8357 74.3068 68.6275 74.3068 68.3707C74.3068 68.1139 74.0986 67.9057 73.8418 67.9057C73.585 67.9057 73.3768 68.1139 73.3768 68.3707C73.3768 68.6275 73.585 68.8357 73.8418 68.8357Z" fill="white"/>
<path d="M57.8868 69.3557C57.8868 70.7457 57.0918 71.8557 56.1118 71.8557C55.1318 71.8557 54.3318 70.7257 54.3318 69.3557C54.3318 67.9857 55.1268 66.8557 56.1118 66.8557C57.0968 66.8557 57.8868 67.9657 57.8868 69.3557Z" fill="#263238"/>
<path d="M56.5618 68.8357C56.8186 68.8357 57.0268 68.6275 57.0268 68.3707C57.0268 68.1139 56.8186 67.9057 56.5618 67.9057C56.305 67.9057 56.0968 68.1139 56.0968 68.3707C56.0968 68.6275 56.305 68.8357 56.5618 68.8357Z" fill="white"/>
<path d="M126.5 65C126.5 98.9655 98.9655 126.5 65 126.5C31.0345 126.5 3.5 98.9655 3.5 65C3.5 31.0345 31.0345 3.5 65 3.5C98.9655 3.5 126.5 31.0345 126.5 65Z" stroke="#FF725E" stroke-width="7"/>
</g>
</svg>
