<svg width="53" height="54" viewBox="0 0 53 54" fill="none" xmlns="http://www.w3.org/2000/svg">
<path d="M23.6888 25.4089C20.1251 28.7948 20.643 39.682 24.1594 43.524C25.7431 45.2544 27.8924 45.145 29.9087 43.2293C32.1005 41.1468 32.4097 38.5282 34.1676 36.8581C35.9407 35.1734 38.5301 35.038 40.7027 32.9739C42.719 31.0581 42.976 28.8812 41.3923 27.1508C37.8759 23.3088 27.2525 22.023 23.6888 25.4089ZM16.507 31.0635C14.4679 29.789 12.0118 30.0425 11.0208 31.6292C10.0298 33.216 10.8796 35.5351 12.9187 36.8097C14.9578 38.0842 17.4139 37.8306 18.4049 36.2439C19.3959 34.6572 18.5461 32.338 16.507 31.0635ZM19.3661 26.4209C20.3852 24.6981 19.1831 21.9655 16.6814 20.3176C14.1797 18.6696 11.326 18.7308 10.3069 20.4537C9.28773 22.1765 10.4898 24.909 12.9915 26.5569C15.4932 28.2049 18.3478 28.1438 19.3661 26.4209ZM30.6627 12.9681C29.0401 13.8647 28.6209 16.343 29.7261 18.5048C30.8318 20.6662 33.0432 21.6918 34.6658 20.7952C36.2885 19.8987 36.7076 17.4204 35.6025 15.2585C34.4968 13.0971 32.2854 12.0716 30.6627 12.9681ZM24.9811 21.0859C26.739 20.1703 26.998 17.2741 25.559 14.6165C24.12 11.9588 21.529 10.5469 19.7706 11.462C18.0123 12.3772 17.7538 15.2739 19.1927 17.9315C20.6317 20.5892 23.2232 22.0016 24.9811 21.0859Z" fill="white"/>
<path d="M51 27C51 40.8425 39.9959 52 26.5 52C13.0041 52 2 40.8425 2 27C2 13.1575 13.0041 2 26.5 2C39.9959 2 51 13.1575 51 27Z" stroke="white" stroke-width="4"/>
</svg>
