<svg width="130" height="130" viewBox="0 0 130 130" fill="none" xmlns="http://www.w3.org/2000/svg">
<mask id="mask0_22_154" style="mask-type:alpha" maskUnits="userSpaceOnUse" x="0" y="0" width="130" height="130">
<rect width="130" height="130" rx="65" fill="#D9D9D9"/>
</mask>
<g mask="url(#mask0_22_154)">
<path d="M107.604 49.8063C108.695 49.8765 109.775 49.5676 110.633 48.9398C111.492 48.312 112.067 47.4104 112.246 46.4112C112.425 45.412 112.195 44.387 111.601 43.5362C111.008 42.6855 110.093 42.0701 109.036 41.8105C109.671 41.1431 110.063 40.3073 110.157 39.4218C110.25 38.5362 110.04 37.6459 109.556 36.8773C109.072 36.1087 108.339 35.5007 107.461 35.1398C106.582 34.7789 105.604 34.6833 104.663 34.8667C104.577 33.9925 104.247 33.1541 103.706 32.4334C103.165 31.7128 102.431 31.1346 101.576 30.7554C100.721 30.3763 99.7741 30.2092 98.8285 30.2705C97.8828 30.3318 96.9706 30.6195 96.181 31.1052C95.0732 30.3523 93.7252 29.9642 92.3516 30.0026C90.9779 30.0411 89.6577 30.5039 88.601 31.3174C87.6665 31.1962 86.7147 31.358 85.8875 31.7785C85.0604 32.199 84.4021 32.8558 84.0109 33.6509C83.6196 34.446 83.5163 35.3369 83.7164 36.1908C83.9165 37.0448 84.4093 37.8159 85.1212 38.3894" fill="#263238"/>
<path d="M87.8802 35.3794L88.8349 35.3352C93.5206 35.1189 98.1223 36.5456 101.723 39.3307C105.323 42.1159 107.658 46.0551 108.262 50.3632C109.437 58.6684 110.616 67.8575 110.797 72.335C111.169 81.617 101.25 83.4999 101.25 83.4999L102.682 94.5897L97.3314 99.9644L78.3717 95.0096L74.0757 54.7522C72.6628 45.1608 77.503 36.4181 87.8802 35.3794Z" fill="#C17560"/>
<path d="M101.336 83.4646C96.6996 83.6764 92.0945 82.6533 88.0664 80.5164C88.0664 80.5164 91.632 87.0138 101.57 85.7188L101.336 83.4646Z" fill="#7C4236"/>
<path d="M103.723 60.2065C103.744 60.5505 103.62 60.8886 103.377 61.1493C103.134 61.41 102.79 61.5728 102.42 61.6032C102.239 61.6248 102.055 61.6127 101.88 61.5677C101.704 61.5227 101.54 61.4456 101.396 61.341C101.253 61.2365 101.134 61.1065 101.046 60.9588C100.958 60.811 100.902 60.6484 100.883 60.4806C100.86 60.1359 100.984 59.7966 101.227 59.535C101.47 59.2733 101.814 59.1099 102.186 59.0794C102.367 59.0573 102.551 59.069 102.728 59.1141C102.904 59.1591 103.069 59.2365 103.212 59.3417C103.355 59.4468 103.475 59.5775 103.562 59.7261C103.65 59.8746 103.705 60.038 103.723 60.2065Z" fill="#263238"/>
<path d="M106.363 54.9777C106.196 55.1589 105.074 54.4649 103.537 54.5357C102 54.6064 100.911 55.3755 100.74 55.2075C100.654 55.1324 100.816 54.8141 101.289 54.4605C101.93 54.0026 102.709 53.74 103.518 53.7091C104.318 53.6695 105.11 53.8677 105.78 54.2749C106.272 54.5887 106.448 54.8981 106.363 54.9777Z" fill="#263238"/>
<path d="M90.5867 60.5203C90.608 60.8643 90.4839 61.2024 90.2407 61.4631C89.9974 61.7238 89.6542 61.8866 89.2836 61.9171C89.1024 61.9386 88.9184 61.9264 88.7423 61.8811C88.5663 61.8358 88.4019 61.7583 88.2587 61.6533C88.1154 61.5483 87.9964 61.4178 87.9084 61.2695C87.8205 61.1213 87.7654 60.9582 87.7466 60.79C87.7253 60.446 87.8494 60.1079 88.0926 59.8472C88.3358 59.5865 88.6791 59.4237 89.0497 59.3932C89.231 59.3711 89.4152 59.3829 89.5915 59.4279C89.7678 59.473 89.9325 59.5504 90.0759 59.6555C90.2192 59.7606 90.3383 59.8913 90.4261 60.0399C90.5138 60.1885 90.5685 60.3519 90.5867 60.5203Z" fill="#263238"/>
<path d="M91.2693 55.9368C91.1022 56.118 89.9805 55.4285 88.4435 55.4948C86.9065 55.5611 85.8181 56.3302 85.6415 56.1622C85.5556 56.0915 85.7179 55.7733 86.1952 55.4197C86.836 54.9609 87.6151 54.6983 88.4244 54.6682C89.2239 54.6276 90.0165 54.8243 90.6869 55.2296C91.1738 55.5523 91.3552 55.8572 91.2693 55.9368Z" fill="#263238"/>
<path d="M97.4173 66.2354C97.4173 66.1559 98.372 65.9569 99.8899 65.705C100.281 65.6475 100.649 65.5591 100.701 65.3072C100.711 64.9306 100.6 64.5598 100.382 64.242C99.9663 63.358 99.5271 62.474 99.0737 61.5281C97.2503 57.665 95.909 54.4782 96.076 54.4119C96.2431 54.3456 97.8613 57.4219 99.6847 61.2894L100.945 64.021C101.214 64.4491 101.314 64.9509 101.226 65.4398C101.174 65.5701 101.092 65.6881 100.984 65.7852C100.877 65.8823 100.748 65.956 100.606 66.0012C100.392 66.0645 100.171 66.1031 99.9472 66.1161C98.3911 66.2663 97.4269 66.315 97.4173 66.2354Z" fill="#263238"/>
<path d="M92.3099 50.403C92.1285 50.7698 90.7872 50.4383 89.1642 50.4648C87.5413 50.4914 86.1905 50.8052 86.0186 50.4383C85.947 50.2615 86.2191 49.9212 86.7871 49.6074C87.5156 49.2264 88.3372 49.024 89.1738 49.0195C90.009 49.0076 90.8326 49.2013 91.5605 49.5808C92.1333 49.8902 92.391 50.2262 92.3099 50.403Z" fill="#263238"/>
<path d="M106.124 49.1035C105.818 49.4438 104.53 49.1654 103.007 49.2228C101.484 49.2803 100.2 49.5676 99.8851 49.2228C99.7467 49.0637 99.9329 48.7278 100.477 48.3963C101.236 47.9803 102.101 47.7577 102.983 47.751C103.861 47.7172 104.733 47.9019 105.508 48.2858C106.062 48.6173 106.258 48.9399 106.124 49.1035Z" fill="#263238"/>
<path d="M107.083 46.1465C107.083 46.1465 104.133 40.4668 101.04 39.2513C97.298 37.7794 95.9233 41.5718 92.3862 40.8292C88.8492 40.0867 85.2787 38.6767 81.861 41.3287C78.114 44.2371 80.0424 46.0714 80.0185 50.1687C79.9374 66.8719 76.9063 71.7339 75.5507 63.9326C75.4027 63.0751 72.7869 62.5093 72.2094 58.8938C71.4647 54.2086 70.9588 48.4979 71.9182 45.1034C72.7201 42.2436 74.3526 40.2149 77.3502 37.9253C82.0758 34.3142 88.8062 33.9473 93.422 34.1462C98.0379 34.3451 107.112 38.8623 107.083 46.1465Z" fill="#263238"/>
<path d="M76.1617 63.6762C76.1318 63.3367 76.0278 63.0064 75.8559 62.7052C75.684 62.404 75.4479 62.1383 75.1617 61.9242C74.8756 61.7101 74.5455 61.5521 74.1914 61.4597C73.8374 61.3673 73.4667 61.3424 73.102 61.3867C71.2452 61.6386 69.2213 62.7127 69.5363 66.2796C70.0948 72.6002 76.8347 70.7747 76.83 70.5935C76.8252 70.4123 76.4242 66.3194 76.1617 63.6762Z" fill="#C17560"/>
<path d="M75.1354 68.3305C75.102 68.3305 75.0209 68.4145 74.8299 68.5161C74.5569 68.6494 74.2386 68.6795 73.9421 68.6001C73.1975 68.41 72.5101 67.3934 72.3669 66.2575C72.2984 65.7176 72.3637 65.1704 72.5578 64.6575C72.6039 64.4546 72.7027 64.2652 72.8458 64.1057C72.9889 63.9463 73.1719 63.8216 73.3788 63.7425C73.5128 63.6997 73.6585 63.7009 73.7915 63.746C73.9246 63.7911 74.0368 63.8773 74.1092 63.99C74.2142 64.1624 74.1808 64.2906 74.2189 64.2994C74.2571 64.3083 74.3574 64.1801 74.2762 63.9237C74.2259 63.7701 74.1197 63.6373 73.9755 63.548C73.7753 63.4313 73.5338 63.3917 73.3025 63.4375C73.0266 63.5097 72.7754 63.6465 72.5731 63.8346C72.3708 64.0227 72.2242 64.2558 72.1473 64.5116C71.9038 65.0811 71.8152 65.6974 71.8896 66.3061C72.0471 67.5747 72.8442 68.715 73.8657 68.9051C74.0537 68.941 74.2479 68.9369 74.434 68.8933C74.62 68.8497 74.7929 68.7676 74.9397 68.6531C75.1354 68.4808 75.1784 68.3393 75.1354 68.3305Z" fill="#7C4236"/>
<path d="M75.6557 51.4019C76.5722 51.9234 77.5412 52.4583 78.6152 52.5069C79.6892 52.5555 80.8825 51.9323 81.0019 50.9422C81.0591 50.5002 80.9159 49.9919 81.2119 49.6162C81.5651 49.1742 82.2572 49.2891 82.8348 49.3201C84.8348 49.4217 87.0449 47.2824 87.4554 45.4702C87.7342 45.7941 88.1342 46.0093 88.5762 46.0731C89.0182 46.137 89.4699 46.0449 89.8421 45.815C90.4541 45.4273 90.9874 44.9424 91.4173 44.3829C91.9853 43.7199 92.7968 43.1144 93.7085 43.1895C94.2144 43.2337 94.7013 43.4901 95.2073 43.4238C96.1047 43.3089 96.4913 42.3144 96.582 41.4834C96.6727 40.6524 96.7252 39.6845 97.4651 39.2027C98.2049 38.7209 99.0737 38.9507 99.9042 39.0259C100.735 39.101 101.814 38.8712 101.966 38.1154C101.991 37.9128 101.971 37.7078 101.908 37.5125C101.845 37.3173 101.74 37.1359 101.599 36.9794C101.003 36.2374 100.155 35.7029 99.191 35.4623C98.2271 35.2217 97.2036 35.289 96.2861 35.6534C95.8885 34.6174 95.1685 33.7136 94.2167 33.0561C93.265 32.3986 92.1243 32.017 90.9385 31.9593C89.7528 31.9016 88.5751 32.1705 87.5542 32.732C86.5333 33.2934 85.715 34.1224 85.2024 35.1142C84.4433 34.5377 83.5452 34.1395 82.5843 33.9532C81.6235 33.7668 80.6283 33.798 79.6832 34.044C78.7381 34.29 77.8711 34.7436 77.1558 35.3662C76.4406 35.9888 75.8981 36.7621 75.5746 37.6203C74.7241 37.4525 73.8391 37.5207 73.0302 37.8164C72.2214 38.1121 71.5247 38.6221 71.0274 39.2827C70.5301 39.9432 70.2543 40.7249 70.2344 41.5299C70.2146 42.3349 70.4516 43.1274 70.9158 43.8083C69.7225 44.5155 68.7296 45.6957 68.7726 47.0084C68.8155 48.3211 70.2666 49.5632 71.6366 49.1521C71.3906 49.6803 71.3707 50.2754 71.5808 50.8167C71.7909 51.358 72.2153 51.8052 72.7682 52.0676C73.321 52.33 73.9608 52.3881 74.5581 52.23C75.1554 52.0719 75.6655 51.7095 75.9851 51.2162" fill="#263238"/>
<path d="M96.9161 37.5231C96.9214 37.5627 96.9214 37.6028 96.9161 37.6424C96.9131 37.7563 96.9036 37.8699 96.8875 37.9828C96.8214 38.4163 96.6762 38.8363 96.4579 39.2248C96.1169 39.8414 95.6268 40.3768 95.0259 40.7895C94.2361 41.3568 93.2665 41.6675 92.2669 41.6735L92.3767 41.5276C92.6145 42.0992 92.599 42.7345 92.3337 43.2956C92.0569 43.8778 91.6903 44.4198 91.2454 44.9045C91.032 45.1814 90.7889 45.4375 90.5199 45.6691C90.2076 45.8878 89.842 46.032 89.4554 46.089C89.0553 46.1621 88.6419 46.143 88.2516 46.0336C87.8613 45.9242 87.5059 45.7277 87.2167 45.4614L87.4649 45.3818C87.4056 46.0438 87.1974 46.6869 86.8538 47.27C86.5102 47.8531 86.0387 48.3632 85.4697 48.7676C84.8439 49.2431 84.0684 49.5176 83.2596 49.5499C82.4977 49.5526 81.7408 49.4361 81.0209 49.2051L81.2023 49.1212C80.8893 49.9041 80.369 50.6017 79.6892 51.1499C79.3794 51.424 79.0072 51.6302 78.5999 51.7534C78.1926 51.8765 77.7607 51.9135 77.3359 51.8616C76.6098 51.7508 75.9346 51.4457 75.3934 50.9839C74.8523 50.5221 74.4689 49.9237 74.2905 49.2626L74.4481 49.3245C73.7499 49.7163 72.927 49.8725 72.1187 49.7665C71.5172 49.6898 70.9435 49.4839 70.4432 49.1654C70.1291 48.9639 69.856 48.7125 69.6365 48.4228C69.5574 48.3254 69.4931 48.2183 69.4456 48.1046C69.7313 48.485 70.0906 48.8132 70.5053 49.0725C70.997 49.3669 71.5559 49.5515 72.1378 49.6118C72.9042 49.701 73.6806 49.545 74.3383 49.1698L74.4624 49.0946L74.4958 49.2272C74.6724 49.8409 75.0367 50.3942 75.5447 50.8207C76.0528 51.2473 76.6831 51.5289 77.3598 51.6317C77.7466 51.6737 78.1387 51.6356 78.5077 51.5202C78.8767 51.4048 79.2134 51.2149 79.4935 50.9643C80.1342 50.4404 80.626 49.7786 80.9255 49.0372L80.9684 48.9178L81.1021 48.9576C81.7901 49.1767 82.513 49.2872 83.2405 49.2847C83.9878 49.2544 84.7036 48.9982 85.2787 48.5554C85.8198 48.1762 86.2692 47.6964 86.598 47.1468C86.9268 46.5972 87.1278 45.99 87.1881 45.3642L87.212 45.0636L87.4363 45.289C87.6935 45.5228 88.0081 45.6953 88.3532 45.7915C88.6982 45.8878 89.0634 45.9049 89.4172 45.8415C89.7635 45.7948 90.0917 45.6687 90.3719 45.4747C90.6287 45.2617 90.8593 45.023 91.0593 44.763C91.4923 44.2972 91.8507 43.7762 92.1237 43.216C92.2464 42.9684 92.3151 42.7007 92.3257 42.4284C92.3363 42.1561 92.2888 41.8845 92.1858 41.6293L92.1237 41.479H92.2955C93.2485 41.4873 94.1784 41.208 94.9447 40.6834C95.5353 40.293 96.0245 39.7857 96.3767 39.1983C96.6609 38.6734 96.8435 38.1064 96.9161 37.5231Z" fill="#455A64"/>
<path d="M97.341 71.1195C97.2885 70.8852 95.6273 71.2919 94.0712 70.2355C92.5151 69.1791 92.2287 67.5216 91.9948 67.5835C91.885 67.5835 91.7753 68.0255 91.9519 68.7283C92.1961 69.6327 92.7755 70.4289 93.5891 70.9781C94.3733 71.5035 95.3463 71.7283 96.3052 71.6057C97.0164 71.4952 97.3791 71.2256 97.341 71.1195Z" fill="#263238"/>
<path d="M77.6557 88.1807C77.6557 88.1807 78.9063 94.3157 95.6607 98.2671C95.6607 98.2671 103.346 93.6482 101.785 87.5707L121.146 98.2804L125.776 148.735L131.981 184.267C112.792 193.456 85.6797 191.277 59.8608 184.037L67.3597 162.088L66.72 153.155L58.2903 105.719L73.3836 91.7432L77.6557 88.1807Z" fill="#E0E0E0"/>
<path d="M113.601 106.027L107.661 106.394C106.896 106.441 106.317 107.054 106.368 107.762L106.37 107.793C106.421 108.502 107.083 109.038 107.848 108.991L113.787 108.625C114.553 108.578 115.132 107.965 115.081 107.256L115.079 107.225C115.028 106.516 114.366 105.98 113.601 106.027Z" fill="#FF725E"/>
<path d="M101.785 87.5619C102.157 87.5619 115.074 90.9123 116.993 91.4382C117.093 91.4692 122.148 93.0957 122.243 93.109C123.427 93.2504 130.673 95.7875 133.604 101.781C136.253 107.196 140.382 119.903 140.382 119.903L120.554 118.175L121.48 106.745L104.544 92.6891L101.785 87.5619Z" fill="#E0E0E0"/>
<path d="M120.468 104.208C120.525 104.395 120.56 104.588 120.573 104.782C120.625 105.158 120.683 105.702 120.735 106.373C120.85 107.699 120.936 109.578 120.893 111.633C120.85 113.689 120.683 115.549 120.515 116.889C120.43 117.556 120.348 118.1 120.282 118.471C120.262 118.664 120.22 118.856 120.157 119.041C120.145 118.846 120.154 118.651 120.186 118.458C120.229 118.038 120.277 117.507 120.339 116.871C120.463 115.545 120.601 113.68 120.644 111.629C120.687 109.578 120.644 107.726 120.563 106.382C120.525 105.746 120.496 105.211 120.477 104.791C120.453 104.597 120.45 104.402 120.468 104.208Z" fill="#263238"/>
<path d="M122.024 93.825C121.945 94.2143 121.838 94.5982 121.704 94.9742C121.156 96.8096 120.824 98.6948 120.716 100.596C120.715 100.993 120.683 101.389 120.621 101.781C120.544 101.389 120.516 100.99 120.539 100.592C120.548 98.6679 120.885 96.757 121.537 94.93C121.651 94.5451 121.815 94.1741 122.024 93.825Z" fill="#263238"/>
<path d="M116.463 110.776L80.6629 112.641C80.1797 112.666 79.7261 112.865 79.3989 113.195C79.0717 113.525 78.8967 113.961 78.9111 114.409L80.1379 159.626C80.1469 159.942 80.2245 160.253 80.3659 160.542C80.5074 160.83 80.7098 161.089 80.9613 161.303C81.2128 161.517 81.5083 161.683 81.8301 161.789C82.1519 161.896 82.4935 161.942 82.8348 161.924L117.866 160.081C118.53 160.042 119.151 159.765 119.597 159.308C120.042 158.852 120.278 158.252 120.253 157.637L118.52 112.513C118.512 112.273 118.451 112.036 118.343 111.818C118.234 111.6 118.079 111.404 117.888 111.242C117.696 111.08 117.471 110.956 117.226 110.875C116.982 110.795 116.722 110.761 116.463 110.776Z" fill="#263238"/>
<path d="M93.0497 112.491C93.0497 112.491 91.5032 110.378 92.1285 109.728C92.5533 109.286 103.226 108.659 103.933 109.171C104.343 109.472 103.518 111.823 103.518 111.823L93.0497 112.491Z" fill="#E0E0E0"/>
<path d="M93.0497 112.491C93.1176 112.47 93.1884 112.46 93.2598 112.46L93.8517 112.402L96.0379 112.23L103.508 111.708L103.403 111.783C103.6 111.245 103.759 110.696 103.88 110.139C103.95 109.87 103.962 109.591 103.914 109.317C103.914 109.282 103.885 109.286 103.88 109.264L103.814 109.233C103.741 109.213 103.668 109.197 103.594 109.185C103.441 109.185 103.279 109.145 103.117 109.136C101.269 109.073 99.4192 109.101 97.5749 109.22C95.866 109.313 94.329 109.423 93.0593 109.591C92.897 109.613 92.7443 109.635 92.582 109.666C92.4496 109.686 92.3209 109.723 92.2001 109.777C92.1323 109.875 92.0879 109.985 92.0698 110.1C92.0517 110.215 92.0603 110.332 92.0951 110.444C92.1893 110.836 92.3369 111.214 92.5342 111.571C92.6917 111.872 92.8302 112.097 92.9209 112.252C92.9748 112.328 93.0211 112.407 93.0593 112.491C92.9905 112.425 92.9297 112.352 92.8779 112.274C92.7729 112.128 92.6201 111.907 92.4483 111.611C92.2334 111.252 92.0728 110.866 91.971 110.466C91.9284 110.334 91.9178 110.194 91.9401 110.057C91.9624 109.921 92.0169 109.79 92.0999 109.675C92.244 109.589 92.4072 109.535 92.5772 109.516C92.7299 109.481 92.8875 109.454 93.0545 109.428C94.3385 109.238 95.8756 109.114 97.5844 109.008C99.4391 108.874 101.301 108.84 103.16 108.906C103.327 108.906 103.494 108.933 103.666 108.959C103.753 108.972 103.839 108.992 103.923 109.017C103.975 109.036 104.023 109.061 104.067 109.092C104.11 109.132 104.144 109.18 104.167 109.233C104.241 109.545 104.241 109.868 104.167 110.179C104.046 110.746 103.887 111.306 103.689 111.854L103.666 111.925H103.584L96.0522 112.367L93.8803 112.473L93.3027 112.495C93.2185 112.503 93.1336 112.501 93.0497 112.491Z" fill="#263238"/>
<path d="M115.503 112.933H115.384L115.026 112.959L113.656 113.039L108.611 113.295L91.9662 114.047L80.9064 114.524L81.0114 114.422C81.0114 117.865 81.0114 120.752 81.0114 122.82C81.0114 123.824 81.0114 124.615 81.0114 125.181C81.0114 125.441 81.0114 125.645 81.0114 125.804C81.0228 125.874 81.0228 125.946 81.0114 126.016C81.0062 125.945 81.0062 125.874 81.0114 125.804C81.0114 125.649 81.0114 125.441 81.0114 125.181C81.0114 124.615 80.9828 123.824 80.9637 122.82C80.935 120.774 80.8968 117.883 80.8491 114.422V114.325H80.9064L91.9567 113.817L108.592 113.145L113.637 112.964L115.012 112.924H115.365C115.411 112.919 115.458 112.922 115.503 112.933Z" fill="#455A64"/>
<path d="M102.95 111.461C102.762 111.502 102.57 111.528 102.377 111.536L100.806 111.664C99.4794 111.761 97.6465 111.881 95.6226 112C93.5987 112.119 91.761 112.212 90.4292 112.27L88.854 112.327C88.6619 112.343 88.4685 112.343 88.2764 112.327C88.4625 112.276 88.6551 112.248 88.8492 112.243C89.2168 112.208 89.7561 112.164 90.4196 112.115C91.7466 112.013 93.5796 111.894 95.6035 111.775C97.6274 111.655 99.4651 111.563 100.797 111.505L102.372 111.452C102.564 111.432 102.758 111.435 102.95 111.461Z" fill="#263238"/>
<path d="M91.8803 111.987L92.1142 114.758L104.74 114.166L104.553 111.306L91.8803 111.987Z" fill="#E0E0E0"/>
<path d="M91.8851 111.987C91.9603 111.971 92.0371 111.962 92.1142 111.96L92.8159 111.907L95.4651 111.73C97.7276 111.589 100.916 111.395 104.534 111.191H104.654V111.302C104.711 112.186 104.773 113.14 104.84 114.095V114.259H104.716C99.5033 114.502 94.897 114.701 92.0855 114.807H92.014V114.745C91.9567 113.861 91.9137 113.18 91.8803 112.676L91.8516 112.142C91.8451 112.083 91.8451 112.023 91.8516 111.965C91.8663 112.03 91.8759 112.097 91.8803 112.164L91.9471 112.712C91.9996 113.207 92.0712 113.887 92.1571 114.732L92.0855 114.67C94.8875 114.511 99.4985 114.272 104.706 114.029L104.592 114.148V114.082C104.53 113.127 104.468 112.19 104.41 111.288L104.539 111.395L95.5319 111.837L92.8493 111.951L92.1189 111.974L91.8851 111.987Z" fill="#263238"/>
<path d="M51.1924 126.564C51.1924 126.564 52.7294 137.172 56.0087 145.252C59.288 153.332 63.5887 160.337 68.4193 160.62C73.25 160.903 89.8277 158.154 96.7968 154.547C103.766 150.94 108.472 148.478 108.472 148.478L118.496 142.03L110.095 133.3C110.095 133.3 87.9661 139.656 84.2764 139.846C82.062 139.957 79.8414 139.825 77.6605 139.453C77.6605 139.453 78.2381 131.011 77.2118 127.691C76.1856 124.372 73.0161 118.109 73.0161 118.109L51.1924 126.564Z" fill="#C17560"/>
<path d="M110.926 131.055C111.425 129.424 112.047 127.827 112.787 126.277C113.895 124.045 114.172 121.485 114.286 120.089C114.401 118.692 114.129 115.881 115.241 115.258C116.353 114.634 118.916 114.418 118.993 117.967C119.069 121.516 117.857 123.417 118.325 125.061C118.605 126.045 119.072 126.974 119.704 127.806L120.535 127.276L121.298 130.224L110.926 131.055Z" fill="#C17560"/>
<path d="M78.472 125.105L86.3575 128.712C86.3575 128.712 99.9854 132.222 105.823 131.559C111.661 130.896 121.294 130.233 121.294 130.233C121.294 130.233 119.585 123.638 120.267 118.842C123.506 116.523 127.604 115.487 131.666 115.96C138.396 116.747 140.258 119.625 140.387 119.912C141.561 122.741 146.081 144.085 138.912 148.54C131.742 152.996 110.635 149.314 105.618 147.687C101.384 146.313 89.7275 141.999 85.5699 140.46C84.5842 140.095 83.5416 139.877 82.4816 139.815L77.4648 139.528V135.873C77.4936 132.677 77.011 129.496 76.0328 126.431L75.1211 122.869L78.472 125.105Z" fill="#C17560"/>
<path d="M78.472 125.105L78.2524 124.973L77.6223 124.553L75.1259 122.891L75.1832 122.856C75.398 123.687 75.6605 124.663 75.9421 125.773C76.071 126.334 76.2715 126.909 76.4481 127.541C76.6247 128.173 76.787 128.823 76.9254 129.521C77.2518 131.048 77.456 132.594 77.5364 134.149C77.5841 134.989 77.5842 135.859 77.5746 136.761C77.5651 137.663 77.5746 138.586 77.5746 139.546L77.503 139.475L80.9302 139.665L82.7298 139.771C83.3516 139.815 83.9672 139.915 84.5675 140.072C85.1817 140.238 85.7842 140.438 86.3719 140.673L88.1905 141.344L91.971 142.737L100.086 145.672C101.518 146.176 102.95 146.684 104.382 147.183C105.117 147.431 105.852 147.687 106.616 147.89C107.379 148.094 108.153 148.279 108.94 148.452C112.188 149.143 115.474 149.674 118.783 150.043C122.264 150.456 125.775 150.623 129.284 150.542C131.095 150.493 132.898 150.301 134.673 149.968C135.568 149.787 136.444 149.537 137.294 149.221C138.153 148.9 138.941 148.436 139.618 147.851C140.271 147.243 140.795 146.526 141.16 145.738C141.55 144.947 141.849 144.12 142.053 143.272C142.466 141.546 142.694 139.787 142.735 138.021C142.801 134.601 142.557 131.183 142.005 127.802C141.752 126.135 141.451 124.487 141.079 122.869C140.888 122.06 140.692 121.256 140.444 120.478C140.382 120.283 140.311 120.084 140.239 119.912C140.136 119.74 140.015 119.579 139.876 119.43C139.601 119.122 139.292 118.841 138.955 118.59C137.588 117.616 136.013 116.922 134.334 116.553C132.704 116.142 131.021 115.943 129.332 115.96C127.687 115.998 126.059 116.282 124.511 116.8C122.998 117.289 121.583 118.005 120.32 118.917L120.358 118.851C120.141 120.791 120.154 122.748 120.396 124.685C120.606 126.542 120.933 128.385 121.375 130.206V130.317H121.255C117.437 130.586 113.771 130.869 110.344 131.174L105.375 131.656C103.823 131.741 102.266 131.69 100.725 131.501C98.0175 131.194 95.3283 130.76 92.6679 130.202C90.2574 129.711 88.1332 129.212 86.3002 128.747L80.4481 126.047L78.9971 125.353C78.6581 125.194 78.4911 125.105 78.4911 125.105C78.4911 125.105 78.6677 125.176 79.0066 125.331L80.5245 126.011L86.4005 128.663C88.2287 129.105 90.3576 129.609 92.7681 130.091C95.1786 130.573 97.8565 131.059 100.811 131.364C102.343 131.545 103.89 131.593 105.432 131.506L110.396 131.015C113.823 130.697 117.47 130.409 121.313 130.131L121.217 130.25C120.773 128.422 120.443 126.571 120.229 124.708C119.982 122.754 119.966 120.781 120.181 118.825V118.785L120.215 118.758C121.498 117.829 122.936 117.101 124.473 116.601C126.044 116.071 127.698 115.781 129.37 115.744C131.081 115.724 132.787 115.923 134.439 116.336C136.152 116.715 137.759 117.424 139.155 118.418C139.504 118.683 139.824 118.979 140.11 119.302C140.26 119.464 140.391 119.64 140.501 119.828C140.592 120.031 140.654 120.226 140.721 120.425C140.974 121.216 141.17 122.025 141.361 122.834C141.738 124.46 142.038 126.109 142.315 127.784C142.838 131.177 143.054 134.604 142.96 138.029C142.919 139.814 142.689 141.591 142.272 143.333C142.06 144.196 141.755 145.038 141.361 145.844C140.982 146.657 140.441 147.396 139.766 148.023C138.363 149.256 136.501 149.791 134.721 150.176C132.93 150.513 131.111 150.705 129.284 150.75C125.762 150.835 122.238 150.665 118.745 150.242C115.426 149.871 112.13 149.336 108.873 148.637C108.086 148.465 107.308 148.279 106.539 148.072C105.771 147.864 105.026 147.608 104.291 147.36C102.821 146.856 101.384 146.343 99.9949 145.84L91.8803 142.891L88.0998 141.49L86.2859 140.818C85.7045 140.584 85.1084 140.381 84.5007 140.213C83.9106 140.061 83.3066 139.961 82.6964 139.912L80.9016 139.806L77.4744 139.607H77.398V139.537C77.398 138.576 77.406 137.646 77.4219 136.748C77.4219 135.864 77.4219 134.98 77.3932 134.144C77.3182 132.6 77.1235 131.062 76.8109 129.543C76.6677 128.849 76.5054 128.191 76.3335 127.572C76.1617 126.953 75.9708 126.37 75.8562 125.804L75.1163 122.882V122.794L75.1927 122.847L77.6653 124.535L78.2858 124.977L78.472 125.105Z" fill="#7C4236"/>
<path d="M77.6557 88.1807C76.9016 88.6448 62.8011 94.0991 61.4264 94.7532C61.4264 94.7532 46.3618 100.057 48.147 114.908C49.1398 123.152 50.7723 129.883 50.7723 129.883C50.7723 129.883 57.2068 126.286 61.751 124.557C67.6031 122.347 74.7154 121.357 74.7154 121.357L70.7058 108.172L77.6557 88.1807Z" fill="#E0E0E0"/>
<path d="M70.4051 108.636C70.4719 108.636 71.5125 111.598 72.7344 115.289C73.9564 118.979 74.892 121.994 74.8252 122.011C74.7583 122.029 73.7178 119.054 72.4958 115.359C71.2738 111.664 70.3573 108.654 70.4051 108.636Z" fill="#263238"/>
<path d="M68.3573 104.424C67.9373 103.931 67.4879 103.461 67.0112 103.014L66.6484 102.705L66.2284 102.4C65.9226 102.175 65.6039 101.965 65.2737 101.772C64.5153 101.328 63.7168 100.945 62.8871 100.627C61.3739 100.028 59.7576 99.6819 58.1137 99.6064C57.4355 99.6032 56.7583 99.655 56.0898 99.7611C56.2571 99.6872 56.4334 99.6323 56.6149 99.5976C57.1068 99.4951 57.6095 99.4432 58.1137 99.4429C59.7814 99.4736 61.4268 99.8039 62.9586 100.415C63.8039 100.738 64.6156 101.131 65.3835 101.591C65.7224 101.821 66.0613 102.033 66.3382 102.25L66.7582 102.572L67.1162 102.899C67.3234 103.083 67.5149 103.281 67.689 103.492C67.8321 103.643 67.9599 103.805 68.0709 103.978C68.1833 104.117 68.2794 104.266 68.3573 104.424Z" fill="#263238"/>
<path d="M54.0325 128.319C53.9934 128.243 53.966 128.163 53.9514 128.08C53.9036 127.894 53.8416 127.665 53.7652 127.382C53.6077 126.772 53.3977 125.892 53.1494 124.796C52.6721 122.612 52.042 119.576 51.5074 116.203C50.9728 112.831 50.6243 109.759 50.4477 107.531C50.357 106.418 50.2998 105.516 50.2759 104.879C50.2759 104.588 50.2759 104.349 50.252 104.159C50.2417 104.075 50.2417 103.991 50.252 103.907C50.2779 103.989 50.2923 104.074 50.295 104.159C50.295 104.345 50.3332 104.601 50.3618 104.875C50.4239 105.525 50.5098 106.418 50.61 107.505C50.8344 109.715 51.2067 112.809 51.7413 116.159C52.2759 119.51 52.863 122.559 53.3165 124.752C53.5361 125.826 53.7175 126.705 53.8511 127.346C53.9084 127.634 53.9561 127.868 53.9895 128.054C54.0157 128.14 54.0302 128.229 54.0325 128.319Z" fill="#263238"/>
<path d="M55.5647 127.351C55.5299 127.268 55.5058 127.182 55.4932 127.094C55.4502 126.904 55.4025 126.652 55.3404 126.361C55.2115 125.693 55.0349 124.774 54.8249 123.656C54.4048 121.366 53.8702 118.201 53.2879 114.701C52.7055 111.2 52.252 108.018 51.9609 105.715C51.8177 104.561 51.7031 103.624 51.6458 102.979L51.579 102.232C51.5687 102.145 51.5687 102.058 51.579 101.971C51.6095 102.054 51.6287 102.14 51.6363 102.227C51.6649 102.422 51.7031 102.669 51.7461 102.97C51.8415 103.642 51.9752 104.566 52.1375 105.693C52.4764 107.991 52.9728 111.165 53.5361 114.665C54.0993 118.166 54.6244 121.295 55.0015 123.629C55.1829 124.756 55.3308 125.676 55.4406 126.347C55.4836 126.648 55.517 126.895 55.5456 127.09C55.5607 127.176 55.5671 127.263 55.5647 127.351Z" fill="#263238"/>
<g opacity="0.3">
<path d="M74.6151 122.502C77.2527 127.185 78.5835 132.404 78.4863 137.685C83.0385 138.088 87.3584 139.736 90.897 142.419C88.7919 141.093 83.589 139.453 77.4791 139.537C77.7846 130.75 76.6104 128.376 74.6151 122.502Z" fill="black"/>
</g>
<path d="M101.785 87.4735C101.891 87.6922 101.966 87.9224 102.009 88.1586C102.071 88.3884 102.148 88.6713 102.229 89.0117L102.444 90.1874C102.825 92.7048 103.021 95.2433 103.031 97.7854C103.078 101.012 102.95 104.857 102.553 109.149C102.134 113.817 101.413 118.457 100.396 123.046L100.224 123.819L99.7467 123.174L98.1954 121.149C94.8779 116.862 91.6655 112.8 88.9351 108.981C86.2048 105.162 83.8706 101.648 82.0902 98.5898C80.6495 96.1889 79.4419 93.6744 78.4815 91.0758C78.3097 90.6338 78.1856 90.1918 78.0758 89.8426C77.966 89.4934 77.8801 89.1752 77.8228 88.9277C77.7426 88.6774 77.6945 88.4193 77.6796 88.1586C77.7464 88.1586 78.028 89.184 78.7536 90.9874C79.8216 93.5258 81.0983 95.9846 82.5723 98.3423C84.3957 101.343 86.7967 104.813 89.527 108.614C92.2574 112.416 95.4984 116.442 98.8255 120.734L100.377 122.763L99.7085 122.891C100.723 118.328 101.462 113.717 101.923 109.078C102.363 104.822 102.544 100.985 102.563 97.7765C102.599 95.25 102.481 92.7237 102.21 90.2095L102.062 89.0293C102.005 88.6934 101.952 88.4105 101.914 88.1763C101.84 87.9478 101.796 87.7118 101.785 87.4735Z" fill="#455A64"/>
<path d="M95.9567 126.502C95.8374 125.895 95.9103 125.269 96.1667 124.699C96.4961 123.908 97.2741 123.032 99.0832 122.931C100.183 122.849 101.29 122.909 102.372 123.108C102.642 123.165 102.896 123.274 103.12 123.426C103.343 123.578 103.53 123.77 103.67 123.992L106.358 128.151L106.028 129.623L102.888 130.312L100.902 128.102L98.8302 128.429C98.8302 128.429 96.5199 128.871 95.9662 126.502H95.9567Z" fill="#FF725E"/>
<path d="M97.5319 123.293C97.5319 123.293 97.5701 123.267 97.6465 123.236C97.7583 123.19 97.8751 123.156 97.9949 123.134C98.4434 123.037 98.914 123.082 99.3314 123.262C99.9492 123.535 100.453 123.988 100.763 124.553L101.947 126.493L103.379 128.911L103.255 128.862C104.181 128.633 104.954 128.447 105.499 128.323C105.782 128.242 106.073 128.187 106.367 128.16C106.101 128.277 105.823 128.37 105.537 128.438C105.002 128.593 104.234 128.809 103.312 129.057H103.231L103.188 128.986C102.754 128.27 102.234 127.452 101.723 126.586C100.849 125.26 100.32 123.793 99.2646 123.386C98.8796 123.208 98.4448 123.143 98.0188 123.2C97.8586 123.24 97.696 123.271 97.5319 123.293Z" fill="#263238"/>
<path d="M102.969 130.334C102.902 130.334 102.916 130.003 103.002 129.623C103.088 129.243 103.207 128.946 103.274 128.96C103.341 128.973 103.327 129.291 103.246 129.671C103.164 130.051 103.036 130.348 102.969 130.334Z" fill="#263238"/>
<path d="M98.267 128.447C98.267 128.412 98.477 128.403 98.7873 128.332C99.1863 128.237 99.5402 128.022 99.7945 127.722C99.9221 127.568 100.022 127.397 100.09 127.214L100.167 127.006L100.296 127.174C100.55 127.451 100.755 127.765 100.902 128.102C100.859 128.133 100.534 127.802 100.109 127.302L100.315 127.267C100.249 127.483 100.139 127.686 99.9902 127.863C99.7046 128.207 99.2845 128.432 98.8207 128.491C98.4723 128.526 98.267 128.473 98.267 128.447Z" fill="#263238"/>
<path d="M99.6131 125.835C99.579 125.732 99.555 125.627 99.5415 125.521C99.4815 125.242 99.3356 124.986 99.1214 124.783C98.9722 124.637 98.7784 124.537 98.566 124.495C98.3536 124.454 98.1326 124.474 97.9329 124.553C97.692 124.663 97.4895 124.834 97.3486 125.046C97.2076 125.258 97.1338 125.502 97.1357 125.751C97.1177 125.999 97.1737 126.247 97.2974 126.467C97.4211 126.688 97.6079 126.873 97.8374 127.002C98.0307 127.092 98.2493 127.127 98.4641 127.1C98.6789 127.073 98.8799 126.986 99.0403 126.851C99.2675 126.663 99.4329 126.42 99.5176 126.148C99.5389 126.041 99.5709 125.936 99.6131 125.835C99.644 125.943 99.644 126.058 99.6131 126.166C99.5488 126.475 99.3819 126.758 99.1357 126.975C98.9637 127.129 98.7489 127.236 98.5152 127.284C98.2422 127.337 97.9579 127.303 97.7085 127.187C97.4414 127.038 97.2223 126.825 97.074 126.571C96.9257 126.317 96.8537 126.03 96.8654 125.742C96.8771 125.453 96.9721 125.172 97.1405 124.929C97.3089 124.686 97.5446 124.489 97.8231 124.358C98.0825 124.26 98.3702 124.246 98.6393 124.319C98.8661 124.385 99.0701 124.506 99.2312 124.668C99.4538 124.901 99.5893 125.193 99.6179 125.503C99.6479 125.612 99.6463 125.727 99.6131 125.835Z" fill="#263238"/>
<path d="M103.312 124.31C103.312 124.31 103.312 124.288 103.374 124.288C103.407 124.291 103.438 124.303 103.465 124.32C103.492 124.338 103.513 124.362 103.527 124.389L103.666 124.597L103.747 124.73C103.773 124.761 103.791 124.797 103.799 124.835C103.807 124.873 103.806 124.913 103.795 124.951C103.778 124.997 103.746 125.037 103.704 125.066C103.662 125.086 103.617 125.101 103.57 125.11L103.355 125.15L102.878 125.234L101.775 125.41C101.731 125.413 101.686 125.405 101.646 125.388C101.605 125.371 101.569 125.346 101.541 125.313C101.509 125.269 101.482 125.221 101.46 125.172L101.346 124.933L101.293 124.814C101.257 124.755 101.246 124.685 101.265 124.619C101.276 124.584 101.295 124.552 101.32 124.525C101.346 124.498 101.377 124.475 101.413 124.46C101.463 124.443 101.516 124.433 101.57 124.429L102.472 124.336C102.747 124.285 103.03 124.276 103.308 124.31C103.048 124.407 102.775 124.469 102.496 124.495L101.604 124.641C101.494 124.641 101.508 124.641 101.494 124.677C101.513 124.733 101.539 124.788 101.57 124.84L101.685 125.074C101.703 125.106 101.719 125.138 101.732 125.172H101.756L102.84 125.013L103.317 124.951L103.532 124.924C103.613 124.924 103.604 124.924 103.627 124.889C103.651 124.853 103.565 124.73 103.537 124.65L103.437 124.425C103.408 124.314 103.312 124.327 103.312 124.31Z" fill="#263238"/>
<path d="M105.647 127.824C105.327 128.015 104.965 128.137 104.587 128.182C104.22 128.297 103.832 128.344 103.446 128.319C103.417 128.261 103.89 128.102 104.506 127.965C104.871 127.843 105.26 127.795 105.647 127.824Z" fill="#263238"/>
<path d="M22.9484 92.1253L25.7789 85.4953L42.667 84.6688L49.5644 85.4953L50.3234 87.3296L55.0061 164.034C55.0061 164.034 38.6478 167.088 30.4664 166.028C22.2849 164.967 12.6761 161.51 12.6761 161.51V117.889L22.9484 92.1253Z" fill="#E0E0E0"/>
<path d="M48.3664 95.2414C48.3363 95.2925 48.2976 95.3387 48.2518 95.3784L47.8842 95.7585C47.5597 96.09 47.0728 96.563 46.4522 97.1464C44.7111 98.7446 42.8634 100.24 40.92 101.624L40.8436 101.686L40.772 101.615C38.9467 99.7607 37.2533 97.7985 35.7027 95.7409L35.2015 95.0646H35.4068L31.3447 100.125C31.1869 100.328 30.997 100.506 30.7814 100.656C30.5579 100.813 30.2774 100.884 29.9986 100.855C29.7376 100.804 29.5005 100.679 29.3208 100.497C29.1521 100.337 28.9927 100.169 28.8434 99.9929L27.2444 98.1321L24.9436 95.4447L24.3278 94.7066C24.2525 94.6239 24.1855 94.5352 24.1274 94.4414C24.217 94.5118 24.2971 94.5919 24.366 94.6801C24.5283 94.8569 24.7479 95.0911 25.0152 95.3873L27.378 98.0393L29.0009 99.878C29.2921 100.201 29.5833 100.594 30.0224 100.66C30.4616 100.727 30.8578 100.373 31.1585 100.002L35.1967 94.932L35.297 94.8038L35.3972 94.9364L35.8984 95.6083C37.4435 97.6574 39.1237 99.6162 40.9295 101.474H40.7768C42.7201 100.096 44.5797 98.6208 46.3472 97.0536C46.9964 96.4834 47.4928 96.0237 47.8317 95.7276C47.994 95.5817 48.1229 95.4668 48.2232 95.3696C48.2645 95.3211 48.3126 95.278 48.3664 95.2414Z" fill="#263238"/>
<g opacity="0.3">
<path d="M29.0725 100.108C29.0725 100.108 31.211 102.548 31.8124 101.938C32.4139 101.328 35.5881 96.7752 35.97 96.5851C36.3519 96.395 40.1801 102.773 41.698 102.331C43.2159 101.889 48.5668 96.921 48.5668 96.921L48.6718 94.963L40.8579 101.549L35.3113 95.0071L30.643 100.629C30.643 100.629 29.6406 101.341 29.0725 100.108Z" fill="black"/>
</g>
<path d="M15.6451 48.0314C15.6451 48.0314 11.2298 63.3246 10.848 74.1492L10.7191 77.7515C10.7191 77.7515 20.471 85.2655 28.6429 85.7075L35.4975 70.1049L15.6451 48.0314Z" fill="#263238"/>
<path d="M58.9393 57.4106C57.0777 49.9497 56.3617 41.2688 49.6599 36.4068C44.6909 32.7956 39.0249 31.7879 32.7146 32.0354C29.6072 32.1547 26.0988 33.4807 23.3875 34.8996C19.6786 36.8444 18.1082 40.7914 16.3134 44.376C12.7287 51.5585 13.1821 61.2825 15.6118 63.9832L48.0179 79.8289C54.4905 76.7128 58.5431 75.4707 59.5789 67.4838C59.9973 64.1171 59.7809 60.7087 58.9393 57.4106Z" fill="#263238"/>
<path d="M49.321 42.334L28.9293 36.7604C22.3565 35.8764 17.65 43.2357 16.9721 49.353C16.2227 56.1465 15.5926 64.4694 16.2466 69.5833C17.564 79.8642 25.9699 81.4731 25.9699 81.4731L25.9078 85.6014L35.1967 94.742L49.3926 85.955L52.6385 46.1043C52.6964 45.2052 52.3876 44.3188 51.7732 43.6205C51.1588 42.9223 50.2836 42.4631 49.321 42.334Z" fill="#FFBF9D"/>
<path d="M20.7144 58.6571C20.7008 58.9973 20.829 59.3293 21.0725 59.5843C21.316 59.8394 21.6561 59.998 22.0223 60.0273C22.2017 60.0475 22.3837 60.0342 22.5574 59.9881C22.7312 59.942 22.8932 59.8641 23.0338 59.759C23.1745 59.6539 23.2909 59.5238 23.3763 59.3762C23.4616 59.2287 23.5141 59.0668 23.5307 58.9002C23.5443 58.56 23.4161 58.228 23.1726 57.9729C22.9292 57.7178 22.5891 57.5592 22.2228 57.53C22.0434 57.5098 21.8614 57.5231 21.6877 57.5692C21.5139 57.6152 21.3519 57.6931 21.2113 57.7982C21.0706 57.9033 20.9542 58.0335 20.8688 58.181C20.7835 58.3285 20.731 58.4904 20.7144 58.6571Z" fill="#263238"/>
<path d="M18.323 55.5145C18.4901 55.6913 19.5927 54.9973 21.1202 55.0725C22.6476 55.1476 23.7264 55.8769 23.8983 55.7089C23.9842 55.6382 23.8171 55.3244 23.3445 54.9752C22.7044 54.5288 21.9307 54.2771 21.1297 54.2548C20.3375 54.2229 19.555 54.4257 18.8958 54.8338C18.4137 55.1299 18.2419 55.4349 18.323 55.5145Z" fill="#263238"/>
<path d="M34.0893 58.6571C34.0757 58.9973 34.2039 59.3293 34.4474 59.5843C34.6908 59.8394 35.0309 59.998 35.3972 60.0273C35.5767 60.0481 35.7589 60.0352 35.933 59.9894C36.107 59.9436 36.2692 59.8657 36.41 59.7605C36.5508 59.6553 36.6673 59.5249 36.7524 59.3771C36.8376 59.2293 36.8897 59.0671 36.9056 58.9002C36.9192 58.56 36.791 58.228 36.5475 57.9729C36.304 57.7178 35.964 57.5592 35.5977 57.53C35.4183 57.5098 35.2363 57.5231 35.0625 57.5692C34.8888 57.6152 34.7268 57.6931 34.5861 57.7982C34.4455 57.9033 34.3291 58.0335 34.2437 58.181C34.1584 58.3285 34.1059 58.4904 34.0893 58.6571Z" fill="#263238"/>
<path d="M33.3065 55.7001C33.4736 55.8813 34.5762 55.183 36.0989 55.2581C37.6216 55.3332 38.7099 56.0625 38.8818 55.8946C38.9677 55.8194 38.8006 55.5056 38.328 55.1608C37.6866 54.7131 36.9113 54.4599 36.1085 54.436C35.3167 54.4074 34.5352 54.61 33.8745 55.015C33.3972 55.2979 33.2206 55.5984 33.3065 55.7001Z" fill="#263238"/>
<path d="M27.3732 64.823C27.3732 64.7434 26.4424 64.5578 24.915 64.3191C24.5283 64.2705 24.1656 64.1821 24.1083 63.9345C24.092 63.5619 24.1986 63.1935 24.4138 62.8782L25.6787 60.1775C27.4448 56.3321 28.7384 53.163 28.5666 53.1055C28.3947 53.0481 26.8338 56.1023 25.0725 59.9521L23.8553 62.6704C23.5902 63.0952 23.4971 63.5935 23.5928 64.076C23.6424 64.2053 23.7239 64.3222 23.8308 64.4173C23.9376 64.5125 24.067 64.5833 24.2085 64.6241C24.4221 64.6866 24.6435 64.7237 24.8672 64.7346C26.4042 64.8627 27.3637 64.9025 27.3732 64.823Z" fill="#263238"/>
<path d="M25.9221 81.4731C31.1141 81.7426 36.2849 80.6715 40.8579 78.3791C40.8579 78.3791 36.9008 85.3981 25.8983 84.0367L25.9221 81.4731Z" fill="#FF9A6C"/>
<path d="M32.3136 67.9568C32.125 67.6668 31.8621 67.4244 31.5483 67.251C31.2344 67.0775 30.8792 66.9783 30.5141 66.9623C30.0034 66.9104 29.4871 66.9855 29.0181 67.1797C28.5492 67.3739 28.1445 67.6803 27.8458 68.0673C27.6328 68.4323 27.5733 68.8574 27.6787 69.2607C27.7694 69.464 27.6787 69.3623 27.8601 69.5082C28.4084 70.0711 29.0965 70.502 29.8649 70.7635C30.2808 70.8753 30.7233 70.8689 31.1352 70.7452C31.5471 70.6215 31.9094 70.3861 32.1752 70.0695C32.4045 69.7627 32.5387 69.4035 32.5631 69.031C32.5875 68.6586 32.5012 68.287 32.3136 67.9568Z" fill="#FF9A6C"/>
<path d="M32.0845 66.0252C31.8411 65.9987 31.7599 67.5324 30.2945 68.5579C28.8291 69.5833 27.0773 69.3446 27.0534 69.5568C27.0248 69.6496 27.4305 69.8706 28.1704 69.9192C29.1378 69.9719 30.0943 69.7074 30.8721 69.1722C31.6207 68.6583 32.1226 67.8938 32.2707 67.0418C32.3662 66.4053 32.2086 66.0208 32.0845 66.0252Z" fill="#263238"/>
<path d="M32.7289 50.5198C32.8387 50.9132 34.3709 50.869 36.1323 51.227C37.8937 51.5851 39.2827 52.1641 39.5548 51.8458C39.6789 51.6911 39.4641 51.3066 38.9247 50.8867C38.1968 50.3642 37.3503 50.0016 36.449 49.8262C35.5477 49.6509 34.6152 49.6674 33.7218 49.8745C33.044 50.0602 32.686 50.3298 32.7289 50.5198Z" fill="#263238"/>
<path d="M18.4519 51.7221C18.7956 52.0005 19.8839 51.5143 21.3159 51.311C22.7479 51.1077 23.9269 51.1784 24.1512 50.8116C24.2419 50.6348 24.0081 50.343 23.4448 50.1088C22.6856 49.8355 21.8591 49.7635 21.0581 49.901C20.2377 50.009 19.4685 50.3345 18.8433 50.8381C18.4042 51.2315 18.2944 51.5806 18.4519 51.7221Z" fill="#263238"/>
<path d="M28.8673 35.6598C28.8673 35.7349 28.8339 35.8057 28.8148 35.8808H28.853L28.8673 35.6598Z" fill="#263238"/>
<path d="M44.9725 85.1196C44.7241 85.1844 44.4638 85.2001 44.2084 85.1657C43.953 85.1314 43.7083 85.0478 43.49 84.9203C43.2718 84.7927 43.0849 84.6242 42.9415 84.4256C42.798 84.2269 42.7013 84.0026 42.6575 83.7671C42.3069 81.7096 42.2876 79.6153 42.6002 77.5526C42.9582 74.7149 45.0393 71.7447 45.2971 68.8938C45.7744 63.4616 45.2732 60.4162 44.6193 55.8592C41.8555 55.541 39.2779 54.0072 37.4593 52.0182C35.2445 49.6314 33.9079 46.67 32.6048 43.7617C32.6855 46.6386 33.7352 49.4203 35.6072 51.7177C34.9862 51.8064 34.3513 51.759 33.7536 51.5794C33.156 51.3998 32.6121 51.0929 32.1657 50.6834C31.2814 49.8563 30.5937 48.8671 30.1465 47.7794C28.9532 45.1894 28.2896 42.4168 28.1895 39.6024C27.7743 43.6293 28.2618 47.6922 29.6215 51.5364C28.8482 51.3154 28.0176 51.5143 27.2348 51.6204C26.452 51.7265 25.5164 51.7088 24.9484 51.1784C24.605 50.7869 24.3882 50.3134 24.3231 49.8126C23.5634 46.3903 23.4407 42.873 23.9603 39.4124C22.9139 41.2461 22.0649 43.1707 21.4257 45.1584C20.7921 47.1652 20.7755 49.2959 21.3779 51.311C21.2889 51.3959 21.1825 51.4634 21.0648 51.5094C20.9472 51.5555 20.8207 51.5793 20.693 51.5793C20.5652 51.5793 20.4388 51.5555 20.3211 51.5094C20.2034 51.4634 20.097 51.3959 20.008 51.311C19.6593 50.9579 19.4491 50.5064 19.4113 50.0292C19.1201 48.3098 19.4447 46.5595 19.7741 44.849C18.6715 46.6612 18.3039 48.7651 17.6929 50.7629C17.0819 52.7608 16.1082 54.8205 14.2322 55.9609C13.9152 53.347 14.0085 50.7045 14.5091 48.1154C14.8767 45.9717 15.9745 43.8456 16.9912 41.892C18.0685 39.7278 19.5872 37.7767 21.4638 36.146C24.7193 33.494 26.0797 34.6432 28.1465 35.6465L28.39 35.7438C28.39 35.6952 28.39 35.6465 28.39 35.6023L28.4807 35.1913C33.9196 34.065 39.5852 34.3108 44.8866 35.9029C48.8007 37.083 49.1826 44.8888 50.1373 41.1804C50.7148 38.935 53.8557 40.9859 53.8939 41.0478C58.5097 48.7607 63.4071 60.9952 63.6315 80.3283L44.9725 85.1196Z" fill="#263238"/>
<path d="M17.5068 90.1142L7.48276 91.9264C5.34563 92.3377 3.36724 93.2735 1.75484 94.6359C0.142449 95.9983 -1.04463 97.7371 -1.68205 99.6702C-1.99819 100.626 -2.22653 101.605 -2.36463 102.596C-3.23815 108.864 -7.37663 125.81 -7.37663 125.81C-7.37663 125.81 -16.6035 129.872 -17.0045 133.355C-17.4054 136.838 -13.8111 143.159 -13.8111 143.159C-13.8111 143.159 -9.82536 152.856 -4.53651 154.88C1.26786 157.09 5.30612 150.412 5.30612 150.412C5.3443 151.022 5.36816 151.362 5.36816 151.362L-9.82536 183.186C-5.95896 189.573 1.30129 197.052 8.67609 198.678C8.67609 198.678 17.2347 149.223 17.7168 138.42C18.1989 127.618 25.6882 85.6367 25.6882 85.6367L17.5068 90.1142Z" fill="#FF725E"/>
<path d="M-9.84921 183.182C-9.83046 183.126 -9.80815 183.071 -9.78239 183.018L-9.56759 182.545L-8.72749 180.737L-5.56755 174.032C-2.85629 168.326 0.928962 160.37 5.23451 151.318V151.367C5.15814 148.931 5.0579 146.39 4.92902 143.8C4.63308 137.956 4.28939 132.392 4.06027 127.331C3.83115 122.27 3.68796 117.699 3.645 113.867C3.60204 110.035 3.645 106.928 3.645 104.784L3.70705 102.318C3.70705 102.044 3.70705 101.832 3.70705 101.677C3.70705 101.522 3.70705 101.456 3.70705 101.456C3.71121 101.53 3.71121 101.603 3.70705 101.677C3.70705 101.832 3.70705 102.044 3.70705 102.318C3.70705 102.892 3.70705 103.723 3.70705 104.789C3.70705 106.932 3.70705 110.031 3.76433 113.863C3.82161 117.695 3.9839 122.261 4.24166 127.317C4.49942 132.374 4.81446 137.947 5.1295 143.791C5.25838 146.381 5.35385 148.922 5.435 151.362V151.384V151.411L-5.43866 174.09C-6.78951 176.923 -7.88738 179.195 -8.65112 180.786L-9.52941 182.554C-9.62487 182.753 -9.70603 182.903 -9.75853 183.018C-9.7848 183.075 -9.81509 183.129 -9.84921 183.182Z" fill="#263238"/>
<path d="M17.1488 133.05C17.1282 133.014 17.1137 132.975 17.1058 132.935L17.0151 132.59C16.934 132.272 16.8242 131.826 16.681 131.264C16.4232 130.106 16.0509 128.422 15.7263 126.327C15.4017 124.232 15.0485 121.726 14.7716 118.937C14.4948 116.148 14.2943 113.072 14.132 109.841C14.0747 108.638 14.0174 107.454 13.9602 106.305C13.9315 105.726 13.9077 105.155 13.879 104.594L13.8361 103.754V103.339V103.127C13.8361 103.091 13.8361 103.052 13.8361 103.012V102.937C13.8444 102.92 13.8557 102.905 13.8695 102.892C13.8869 102.877 13.9082 102.865 13.9315 102.859C13.9548 102.853 13.9794 102.852 14.0031 102.857C14.089 102.901 14.0652 102.906 14.0891 102.928L13.9172 102.892L16.5998 101.16V101.341L13.6881 100.077L13.6069 100.042L13.6308 99.9664C14.0699 98.4326 14.5855 97.0713 15.0628 95.8646C15.5401 94.658 15.9554 93.6193 16.3134 92.7706C16.6714 91.922 16.9626 91.2546 17.1631 90.8037C17.2633 90.5916 17.3397 90.4192 17.397 90.291C17.423 90.2317 17.4533 90.1741 17.4877 90.1186C17.4785 90.1813 17.4592 90.2424 17.4304 90.2998L17.2204 90.8258L16.4566 92.8281C16.1177 93.6856 15.7072 94.7331 15.2537 95.9221C14.8003 97.1111 14.2991 98.4945 13.8742 100.015L13.817 99.9045L16.7382 101.155L16.9149 101.231L16.7573 101.337L14.0843 103.078L13.9124 103.043C13.9124 103.043 13.9983 102.985 13.9888 102.985C14.0035 102.998 14.0216 103.007 14.0413 103.012H14.0795V103.105V103.303V103.715C14.0795 103.993 14.1081 104.271 14.1272 104.55C14.1559 105.116 14.1797 105.686 14.2084 106.265C14.2657 107.419 14.3277 108.603 14.385 109.801C14.5473 113.027 14.7525 116.099 15.0055 118.888C15.2585 121.677 15.5736 124.192 15.8934 126.274C16.2132 128.356 16.5521 130.053 16.7812 131.216C16.9053 131.787 17.0008 132.229 17.0676 132.542L17.1344 132.891C17.144 133.024 17.1488 133.05 17.1488 133.05Z" fill="#263238"/>
<path d="M4.12233 129.072C4.07937 129.072 4.06028 128.674 3.82639 128.078C3.52986 127.301 2.98027 126.629 2.25351 126.154C1.52674 125.679 0.658641 125.424 -0.230947 125.426C-0.913533 125.426 -1.32882 125.545 -1.33836 125.505C-0.996817 125.345 -0.618627 125.263 -0.235725 125.266C0.700172 125.215 1.62722 125.459 2.39494 125.957C3.16266 126.455 3.72598 127.179 3.99346 128.011C4.13073 128.35 4.17502 128.714 4.12233 129.072Z" fill="#263238"/>
<path d="M0.547108 126.889C0.446187 127.115 0.326496 127.334 0.189108 127.543C0.0486836 127.799 -0.110813 128.045 -0.288226 128.281C-0.498252 128.555 -0.713057 128.886 -1.009 129.209C-1.1522 129.373 -1.30495 129.545 -1.4577 129.726C-1.61044 129.907 -1.80616 130.071 -1.98755 130.257C-2.38044 130.643 -2.79467 131.01 -3.2286 131.357C-5.231 132.948 -7.60279 134.09 -10.1595 134.694C-10.716 134.827 -11.2801 134.93 -11.8492 135.004C-12.1118 135.039 -12.3695 135.083 -12.6178 135.101L-13.3338 135.145C-13.7455 135.167 -14.1583 135.167 -14.57 135.145C-14.8797 135.148 -15.1892 135.131 -15.4961 135.092C-15.7597 135.076 -16.0214 135.041 -16.2789 134.986C-16.2789 134.929 -15.1524 135.092 -13.3481 134.986L-12.6416 134.929C-12.3934 134.906 -12.1404 134.858 -11.8779 134.823C-11.3528 134.756 -10.7991 134.619 -10.2215 134.495C-7.70613 133.875 -5.36912 132.749 -3.37657 131.198C-2.94328 130.862 -2.52905 130.505 -2.13552 130.128C-1.95413 129.947 -1.76319 129.788 -1.60567 129.611C-1.44815 129.435 -1.29063 129.271 -1.12834 129.112C-0.00660376 127.804 0.494601 126.862 0.547108 126.889Z" fill="#263238"/>
<path d="M64.19 156.772L73.9132 96.1785L55.9655 90.0877C55.9655 90.0877 51.7602 86.5075 49.5215 84.6511L48.7339 94.0215C48.7339 94.0215 46.2852 132.33 50.1086 151.614C53.9321 170.899 53.3879 170.253 56.1851 182.806C58.2185 191.938 58.5717 199.916 61.6171 200.72C64.6625 201.525 75.2832 187.146 75.2832 187.146L64.19 156.772Z" fill="#FF725E"/>
<path d="M73.8941 96.1784C73.8941 96.1784 79.3357 98.6492 80.1472 105.686C80.868 111.874 82.0565 149.886 81.899 152.94C81.7415 155.994 78.8966 164.666 73.7844 164.967C65.6936 165.444 63.4692 159.663 63.4692 159.663L65.622 140.255L73.8941 96.1784Z" fill="#FF725E"/>
<path d="M53.3115 131.012V130.898C53.3115 130.809 53.3497 130.703 53.3784 130.566C53.4452 130.261 53.5359 129.837 53.6504 129.302C53.8652 128.197 54.1946 126.601 54.5001 124.617C55.1397 120.639 55.6839 115.127 55.9989 109.014C56.0753 107.573 56.1469 106.163 56.2137 104.802C56.2471 104.121 56.2805 103.449 56.314 102.795C56.314 102.468 56.3521 102.141 56.3665 101.823C56.3665 101.664 56.3665 101.505 56.3903 101.345V101.111C56.3929 101.076 56.3929 101.04 56.3903 101.005C56.3917 100.993 56.3917 100.981 56.3903 100.97C56.3997 100.978 56.411 100.985 56.4234 100.988C56.4358 100.992 56.449 100.993 56.4619 100.992C56.4906 100.992 56.5383 100.961 56.5288 100.965L56.3617 100.996L53.6886 99.2548L53.5359 99.1531L53.7029 99.0824L56.629 97.8359L56.5765 97.9376C56.3146 96.8505 56.1155 95.7514 55.9798 94.6447C55.8462 93.6679 55.7125 92.8281 55.5693 92.1518C55.4261 91.4756 55.2686 90.9496 55.154 90.6004C55.0968 90.4369 55.049 90.3087 55.0156 90.2026C54.995 90.1588 54.9805 90.1128 54.9727 90.0656C55.0015 90.1051 55.024 90.1483 55.0395 90.1938C55.0777 90.2822 55.1397 90.4103 55.2065 90.5827C55.3995 91.0889 55.5589 91.6055 55.6839 92.1297C55.8414 92.8104 55.9894 93.6502 56.1612 94.6226C56.333 95.595 56.4715 96.7044 56.7865 97.8934V97.9641L56.7149 97.9951L53.8032 99.2636V99.0912L56.4858 100.824L56.3187 100.855V100.824C56.3428 100.801 56.375 100.787 56.4094 100.784C56.4422 100.782 56.4746 100.791 56.5001 100.811L56.524 100.837C56.5266 100.85 56.5266 100.864 56.524 100.877C56.5266 100.903 56.5266 100.93 56.524 100.956C56.524 101.005 56.524 101.045 56.524 101.085V101.328V101.81C56.524 102.132 56.4858 102.455 56.4715 102.782C56.4381 103.441 56.4094 104.108 56.376 104.789C56.3092 106.153 56.2392 107.557 56.166 109.001C55.9364 114.23 55.4106 119.443 54.5908 124.621C54.2662 126.606 53.9082 128.197 53.6648 129.298C53.5263 129.828 53.4213 130.252 53.3449 130.557L53.259 130.88C53.2849 130.921 53.3027 130.966 53.3115 131.012Z" fill="#263238"/>
<path d="M63.6124 115.22L25.168 117.036C24.7315 117.057 24.3186 117.226 24.0091 117.512C23.6997 117.797 23.5156 118.179 23.4925 118.583L20.9388 160.808C20.925 161.038 20.9637 161.268 21.0524 161.483C21.141 161.698 21.2775 161.893 21.4532 162.056C21.6288 162.219 21.8395 162.346 22.0716 162.429C22.3037 162.512 22.5521 162.548 22.8004 162.536L60.0992 160.728C60.5272 160.708 60.9326 160.544 61.24 160.268C61.5474 159.991 61.7357 159.621 61.7699 159.225L65.4644 116.988C65.4844 116.755 65.4507 116.522 65.3655 116.303C65.2802 116.083 65.1455 115.883 64.9703 115.716C64.795 115.549 64.5832 115.418 64.3491 115.332C64.1149 115.247 63.8638 115.208 63.6124 115.22Z" fill="#263238"/>
<path d="M71.6793 105.964C71.6668 106.092 71.6461 106.219 71.6173 106.344C71.56 106.614 71.4836 106.972 71.3929 107.423L70.548 111.401C69.8464 114.747 68.9299 119.357 68.0516 124.515C67.1733 129.673 66.505 134.319 66.0611 137.7C65.8415 139.38 65.6649 140.741 65.5408 141.709C65.4787 142.151 65.431 142.531 65.3976 142.801C65.3852 142.927 65.3629 143.053 65.3308 143.176C65.3181 143.05 65.3181 142.923 65.3308 142.796C65.3594 142.522 65.3881 142.16 65.431 141.7C65.5217 140.75 65.6697 139.38 65.8702 137.682C66.2711 134.292 66.9155 129.62 67.7795 124.475C68.6435 119.33 69.6077 114.707 70.3523 111.37C70.7246 109.699 71.0397 108.351 71.2736 107.423C71.3881 106.981 71.4741 106.618 71.5409 106.353C71.5751 106.22 71.6214 106.09 71.6793 105.964Z" fill="#263238"/>
<g opacity="0.3">
<path d="M55.2972 90.8523C55.2972 90.8523 58.5383 97.8536 58.0849 98.4371C57.6314 99.0205 55.9273 99.436 55.9273 99.436C55.9273 99.436 58.7197 100.55 58.7149 101.544C58.7149 103.52 55.7221 115.215 55.7221 115.215L56.4619 100.93L53.7841 99.1929L56.7006 97.9376L55.2972 90.8523Z" fill="black"/>
</g>
<path d="M63.4549 116.723C63.3838 116.734 63.3121 116.741 63.2401 116.745L62.6052 116.789L60.166 116.939L51.2017 117.443L37.8984 118.159L30.0463 118.575L27.9842 118.681L26.9436 118.738C26.7718 118.738 26.5809 118.738 26.4281 118.765C26.2764 118.785 26.1341 118.845 26.0176 118.937C25.9005 119.031 25.8145 119.153 25.7694 119.291C25.735 119.436 25.7158 119.584 25.7121 119.733L25.6405 120.718L25.4973 122.712C24.7002 133.404 23.9794 143.079 23.4591 150.116C23.187 153.612 22.9818 156.445 22.8147 158.412C22.7336 159.384 22.6667 160.14 22.6238 160.666C22.5999 160.918 22.5808 161.108 22.5713 161.254C22.5617 161.4 22.5426 161.453 22.5426 161.453C22.5426 161.453 22.5426 161.387 22.5426 161.254C22.5426 161.122 22.5426 160.914 22.576 160.666C22.6094 160.136 22.6572 159.38 22.7145 158.408C22.8481 156.436 23.0438 153.603 23.2825 150.107C23.7885 143.088 24.4806 133.408 25.2491 122.703C25.2968 122.037 25.3446 121.374 25.3923 120.714L25.4639 119.728C25.4666 119.554 25.489 119.381 25.5307 119.211C25.5933 119.039 25.7056 118.886 25.8553 118.769C26.0093 118.649 26.1959 118.571 26.3947 118.544C26.5904 118.544 26.7479 118.544 26.9293 118.513L27.9699 118.46L30.032 118.354L37.8889 117.951L51.1922 117.284L60.1613 116.842L62.6004 116.736L63.2353 116.714L63.4549 116.723Z" fill="#455A64"/>
<path d="M126.5 65C126.5 98.9655 98.9655 126.5 65 126.5C31.0345 126.5 3.5 98.9655 3.5 65C3.5 31.0345 31.0345 3.5 65 3.5C98.9655 3.5 126.5 31.0345 126.5 65Z" stroke="#FF725E" stroke-width="7"/>
</g>
</svg>
